<?xml version="1.0" encoding="utf-8"?>
<!-- Generated by IcoMoon.io -->
<svg version="1.1" xmlns="http://www.w3.org/2000/svg" xmlns:xlink="http://www.w3.org/1999/xlink" width="720" height="122" viewBox="0 0 720 122">
<svg id="pressure" width="30" height="30" viewBox="0 0 30 30" x="0" y="0">
<path fill="#e0ebfc" d="M26.624 10.848c0-0.012 0.001-0.024 0.001-0.037 0-2.918-2.366-5.284-5.284-5.284-0.217 0-0.431 0.015-0.642 0.040-0.839-2.489-3.191-4.282-5.963-4.282-3.476 0-6.294 2.818-6.294 6.294 0 0.102 0.003 0.203 0.008 0.304-0.474-0.114-0.969-0.177-1.478-0.177-3.465 0-6.275 2.809-6.275 6.275s2.809 6.275 6.275 6.275h17.343c2.755 0 4.988-2.233 4.988-4.988 0-1.921-1.087-3.588-2.679-4.421z"></path>
<path fill="#3762cc" d="M24.315 20.495h-17.343c-3.591 0-6.513-2.922-6.513-6.513s2.922-6.513 6.513-6.513c0.411 0 0.824 0.040 1.232 0.118 0-0.002 0-0.005 0-0.007 0-3.602 2.93-6.532 6.532-6.532 2.741 0 5.179 1.705 6.125 4.264 0.164-0.015 0.324-0.022 0.48-0.022 3.010 0 5.465 2.421 5.521 5.417 1.656 0.925 2.679 2.66 2.679 4.563 0 2.882-2.344 5.226-5.226 5.226zM6.972 7.946c-3.329 0-6.036 2.708-6.036 6.036s2.708 6.036 6.036 6.036h17.343c2.619 0 4.749-2.131 4.749-4.749 0-1.773-0.977-3.386-2.551-4.209-0.079-0.042-0.129-0.124-0.128-0.213l0.001-0.023c0-2.794-2.263-5.057-5.045-5.057-0.199 0-0.4 0.013-0.613 0.038-0.112 0.013-0.218-0.053-0.254-0.16-0.831-2.464-3.137-4.12-5.737-4.12-3.339 0-6.055 2.716-6.055 6.055 0 0.098 0.003 0.196 0.007 0.293 0.004 0.075-0.028 0.147-0.086 0.195s-0.135 0.065-0.208 0.048c-0.467-0.113-0.946-0.17-1.422-0.17z"></path>
<path fill="#a4c9ff" d="M13.332 11.225h-0.635c-0.133-0.558-0.366-0.944-0.582-1.298-0.293-0.481-0.546-0.896-0.546-1.772s0.253-1.291 0.546-1.772c0.323-0.531 0.69-1.133 0.69-2.286 0-0.273-0.221-0.494-0.494-0.494s-0.494 0.221-0.494 0.494c0 0.876-0.253 1.291-0.546 1.772-0.323 0.531-0.69 1.133-0.69 2.286s0.366 1.755 0.69 2.286c0.154 0.254 0.297 0.49 0.398 0.784h-0.379c-0.182 0-0.301 0.171-0.223 0.319l1.021 1.937c0.089 0.17 0.357 0.17 0.446 0l1.021-1.937c0.078-0.148-0.041-0.319-0.223-0.319z"></path>
<path fill="#a4c9ff" d="M19.171 11.225h-0.635c-0.133-0.558-0.366-0.944-0.582-1.298-0.293-0.481-0.546-0.896-0.546-1.772s0.253-1.291 0.546-1.772c0.323-0.531 0.69-1.133 0.69-2.286 0-0.273-0.221-0.494-0.494-0.494s-0.494 0.221-0.494 0.494c0 0.876-0.253 1.291-0.546 1.772-0.323 0.531-0.69 1.133-0.69 2.286s0.366 1.755 0.69 2.286c0.154 0.254 0.297 0.49 0.398 0.784h-0.379c-0.182 0-0.301 0.171-0.223 0.319l1.021 1.937c0.089 0.17 0.357 0.17 0.446 0l1.021-1.937c0.078-0.148-0.041-0.319-0.223-0.319z"></path>
<path fill="#4671c6" d="M22.266 21.449c0 4.013-3.253 7.266-7.266 7.266s-7.266-3.253-7.266-7.266c0-4.013 3.253-7.266 7.266-7.266s7.266 3.253 7.266 7.266z"></path>
<path fill="#f9cfcf" d="M20.464 21.226c0 3.018-2.446 5.464-5.464 5.464s-5.464-2.446-5.464-5.464c0-3.018 2.446-5.464 5.464-5.464s5.464 2.446 5.464 5.464z"></path>
<path fill="#6bdddd" d="M12.541 21.218c0.002-0.579 0.206-1.112 0.544-1.532l-1.722-2.535c-1.119 1-1.826 2.452-1.828 4.067z"></path>
<path fill="#f9a7a7" d="M20.464 21.218c-0.002-1.615-0.709-3.067-1.828-4.067l-1.722 2.535c0.338 0.42 0.542 0.952 0.544 1.532z"></path>
<path fill="#3762cc" d="M15 28.953c-4.138 0-7.504-3.366-7.504-7.504s3.366-7.504 7.504-7.504 7.504 3.366 7.504 7.504-3.366 7.504-7.504 7.504zM15 14.421c-3.875 0-7.027 3.152-7.027 7.027s3.152 7.027 7.027 7.027 7.027-3.152 7.027-7.027-3.152-7.027-7.027-7.027z"></path>
<path fill="#ffea92" d="M15 18.767c0.773 0 1.463 0.36 1.915 0.92l1.722-2.535c-0.967-0.864-2.241-1.39-3.636-1.39s-2.67 0.526-3.636 1.39l1.722 2.535c0.451-0.56 1.141-0.92 1.914-0.92z"></path>
<path fill="#3762cc" d="M15 26.929c-3.144 0-5.703-2.558-5.703-5.703s2.558-5.703 5.703-5.703 5.703 2.558 5.703 5.703-2.558 5.703-5.703 5.703zM15 16c-2.882 0-5.226 2.344-5.226 5.226s2.344 5.226 5.226 5.226 5.226-2.344 5.226-5.226-2.344-5.226-5.226-5.226z"></path>
<path fill="#3762cc" d="M20.464 21.457h-3.005c-0.131 0-0.238-0.106-0.238-0.238-0.002-0.508-0.172-0.986-0.491-1.383-0.425-0.528-1.055-0.831-1.729-0.831s-1.304 0.303-1.729 0.831c-0.32 0.397-0.49 0.875-0.491 1.383-0 0.131-0.107 0.238-0.238 0.238h-3.005c-0.063 0-0.124-0.025-0.169-0.070s-0.070-0.105-0.070-0.169c0.002-1.616 0.698-3.163 1.908-4.244 1.047-0.936 2.395-1.451 3.795-1.451s2.748 0.515 3.795 1.451c1.21 1.081 1.905 2.628 1.908 4.244 0 0.063-0.025 0.124-0.070 0.169s-0.105 0.070-0.169 0.070zM17.686 20.98h2.534c-0.066-1.393-0.693-2.713-1.743-3.651-0.96-0.857-2.195-1.329-3.477-1.329s-2.518 0.472-3.477 1.329c-1.049 0.938-1.676 2.257-1.743 3.651h2.534c0.049-0.525 0.253-1.030 0.585-1.443 0.516-0.641 1.282-1.008 2.1-1.008s1.584 0.368 2.1 1.008c0.333 0.413 0.537 0.918 0.585 1.443z"></path>
<path fill="#4671c6" d="M14.147 21.357c-0.079 0.422 0.135 0.86 0.535 1.016 0.104 0.040 0.216 0.062 0.331 0.060 0.385-0.005 0.713-0.251 0.839-0.595 0.053-0.145 0.056-0.305 0.027-0.457l-0.749-3.887c-0.028-0.143-0.232-0.143-0.259 0z"></path>
</svg>
<svg id="max-temperature" width="30" height="30" viewBox="0 0 30 30" x="0" y="46">
<path fill="#d0e8f9" d="M18.25 19.394v-15.893c0-1.657-1.343-3-3-3v0c-1.657 0-3 1.343-3 3v15.893c-1.671 1.090-2.715 3.060-2.462 5.256 0.287 2.505 2.327 4.538 4.834 4.816 3.319 0.368 6.128-2.22 6.128-5.465 0-1.93-0.996-3.625-2.5-4.606z"></path>
<path fill="#e64c3c" d="M15.75 21.55v-18.55c0-0.277-0.224-0.5-0.5-0.5s-0.5 0.224-0.5 0.5v18.55c-1.141 0.232-2 1.24-2 2.45 0 1.38 1.119 2.5 2.5 2.5s2.5-1.119 2.5-2.5c0-1.209-0.859-2.218-2-2.45z"></path>
<path fill="#fff" d="M13.25 4h-1c-0.276 0-0.5-0.224-0.5-0.5s0.224-0.5 0.5-0.5h1c0.276 0 0.5 0.224 0.5 0.5s-0.224 0.5-0.5 0.5z"></path>
<path fill="#fff" d="M13.25 6.5h-1c-0.276 0-0.5-0.224-0.5-0.5s0.224-0.5 0.5-0.5h1c0.276 0 0.5 0.224 0.5 0.5s-0.224 0.5-0.5 0.5z"></path>
<path fill="#fff" d="M13.25 9h-1c-0.276 0-0.5-0.224-0.5-0.5s0.224-0.5 0.5-0.5h1c0.276 0 0.5 0.224 0.5 0.5s-0.224 0.5-0.5 0.5z"></path>
<path fill="#fff" d="M13.25 11.5h-1c-0.276 0-0.5-0.224-0.5-0.5s0.224-0.5 0.5-0.5h1c0.276 0 0.5 0.224 0.5 0.5s-0.224 0.5-0.5 0.5z"></path>
<path fill="#fff" d="M13.25 14h-1c-0.276 0-0.5-0.224-0.5-0.5s0.224-0.5 0.5-0.5h1c0.276 0 0.5 0.224 0.5 0.5s-0.224 0.5-0.5 0.5z"></path>
<path fill="#fff" d="M13.25 16.5h-1c-0.276 0-0.5-0.224-0.5-0.5s0.224-0.5 0.5-0.5h1c0.276 0 0.5 0.224 0.5 0.5s-0.224 0.5-0.5 0.5z"></path>
<path fill="#fff" d="M13.25 19h-1c-0.276 0-0.5-0.224-0.5-0.5s0.224-0.5 0.5-0.5h1c0.276 0 0.5 0.224 0.5 0.5s-0.224 0.5-0.5 0.5z"></path>
<path fill="#fff" d="M18.25 5h-1c-0.276 0-0.5-0.224-0.5-0.5s0.224-0.5 0.5-0.5h1c0.276 0 0.5 0.224 0.5 0.5s-0.224 0.5-0.5 0.5z"></path>
<path fill="#fff" d="M18.25 7.5h-1c-0.276 0-0.5-0.224-0.5-0.5s0.224-0.5 0.5-0.5h1c0.276 0 0.5 0.224 0.5 0.5s-0.224 0.5-0.5 0.5z"></path>
<path fill="#fff" d="M18.25 10h-1c-0.276 0-0.5-0.224-0.5-0.5s0.224-0.5 0.5-0.5h1c0.276 0 0.5 0.224 0.5 0.5s-0.224 0.5-0.5 0.5z"></path>
<path fill="#fff" d="M18.25 12.5h-1c-0.276 0-0.5-0.224-0.5-0.5s0.224-0.5 0.5-0.5h1c0.276 0 0.5 0.224 0.5 0.5s-0.224 0.5-0.5 0.5z"></path>
<path fill="#fff" d="M18.25 15h-1c-0.276 0-0.5-0.224-0.5-0.5s0.224-0.5 0.5-0.5h1c0.276 0 0.5 0.224 0.5 0.5s-0.224 0.5-0.5 0.5z"></path>
<path fill="#fff" d="M18.25 17.5h-1c-0.276 0-0.5-0.224-0.5-0.5s0.224-0.5 0.5-0.5h1c0.276 0 0.5 0.224 0.5 0.5s-0.224 0.5-0.5 0.5z"></path>
<path fill="#0096e6" d="M25.164 8.414v0c-0.781 0.781-2.047 0.781-2.828 0v0c-0.781-0.781-0.781-2.047 0-2.828l1.415-1.414 1.414 1.414c0.781 0.781 0.781 2.047 0 2.828z"></path>
<path fill="#0096e6" d="M7.664 18.914v0c-0.781 0.781-2.048 0.781-2.828 0v0c-0.781-0.781-0.781-2.047 0-2.828l1.414-1.414 1.414 1.414c0.782 0.781 0.782 2.047 0 2.828z"></path>
<path fill="#cad1d8" d="M15.25 30v0c-0.226 0-0.457-0.013-0.684-0.038-2.743-0.304-4.962-2.514-5.275-5.256-0.251-2.191 0.687-4.303 2.46-5.575v-15.63c0-1.929 1.57-3.5 3.5-3.5s3.5 1.57 3.5 3.5v15.63c1.57 1.128 2.5 2.928 2.5 4.869 0 1.603-0.624 3.11-1.757 4.243s-2.64 1.757-4.243 1.757zM15.25 1c-1.379 0-2.5 1.122-2.5 2.5v16.164l-0.227 0.149c-1.599 1.044-2.458 2.875-2.239 4.779 0.262 2.282 2.108 4.123 4.393 4.376 1.532 0.173 3.030-0.353 4.109-1.432 0.945-0.945 1.464-2.2 1.464-3.536 0-1.694-0.85-3.259-2.273-4.187l-0.227-0.148v-16.164c0-1.379-1.122-2.5-2.5-2.5z"></path>
</svg>
<svg id="humidity" width="30" height="30" viewBox="0 0 30 30" x="46" y="46">
<path fill="#0096e6" d="M14.289 17.524v0c-3.226 3.226-8.457 3.226-11.683 0v0c-3.226-3.226-3.226-8.456 0-11.683l5.841-5.841 5.841 5.841c3.226 3.226 3.226 8.457 0 11.683z"></path>
<path fill="#d0e8f9" d="M28.478 20.315v0c-1.78 1.78-4.666 1.78-6.446 0v0c-1.78-1.78-1.78-4.666 0-6.446l3.223-3.223 3.223 3.223c1.78 1.78 1.78 4.666 0 6.446z"></path>
<path fill="#e4ecf4" d="M17.751 29.332v0c-0.89 0.89-2.333 0.89-3.223 0v0c-0.89-0.89-0.89-2.333 0-3.223l1.611-1.611 1.611 1.611c0.89 0.89 0.89 2.333 0.001 3.223z"></path>
<path fill="#d0e8f9" d="M8.733 15.386c0 1.888-1.53 3.418-3.418 3.418s-3.418-1.53-3.418-3.418c0-1.888 1.53-3.418 3.418-3.418s3.418 1.53 3.418 3.418z"></path>
</svg>
<svg id="sunrise" width="30" height="30" viewBox="0 0 30 30" x="92" y="46">
<path fill="#f0c419" d="M15 1.5c-0.276 0-0.5 0.224-0.5 0.5v3c0 0.276 0.224 0.5 0.5 0.5s0.5-0.224 0.5-0.5v-3c0-0.276-0.224-0.5-0.5-0.5z"></path>
<path fill="#f0c419" d="M29.5 16h-3c-0.276 0-0.5 0.224-0.5 0.5s0.224 0.5 0.5 0.5h3c0.276 0 0.5-0.224 0.5-0.5s-0.224-0.5-0.5-0.5z"></path>
<path fill="#f0c419" d="M3.5 16h-3c-0.276 0-0.5 0.224-0.5 0.5s0.224 0.5 0.5 0.5h3c0.276 0 0.5-0.224 0.5-0.5s-0.224-0.5-0.5-0.5z"></path>
<path fill="#f0c419" d="M26.354 5.146c-0.195-0.195-0.511-0.195-0.707 0l-2.868 2.868c-0.195 0.195-0.195 0.511 0 0.707 0.098 0.098 0.225 0.147 0.353 0.147s0.256-0.049 0.353-0.147l2.868-2.868c0.195-0.195 0.195-0.511 0-0.707z"></path>
<path fill="#f0c419" d="M4.353 5.146c-0.195-0.195-0.511-0.195-0.707 0s-0.195 0.511 0 0.707l2.868 2.868c0.098 0.098 0.225 0.147 0.353 0.147s0.256-0.049 0.353-0.147c0.195-0.195 0.195-0.511 0-0.707l-2.868-2.868z"></path>
<path fill="#f0c419" d="M27.427 11.225c-0.108-0.254-0.402-0.373-0.655-0.265l-1.381 0.586c-0.254 0.108-0.373 0.402-0.265 0.655 0.081 0.19 0.266 0.305 0.46 0.305 0.065 0 0.132-0.013 0.195-0.040l1.381-0.586c0.254-0.108 0.373-0.402 0.265-0.655z"></path>
<path fill="#f0c419" d="M4.524 11.729l-1.391-0.562c-0.256-0.104-0.547 0.020-0.651 0.277s0.021 0.547 0.277 0.651l1.391 0.562c0.061 0.024 0.125 0.037 0.187 0.037 0.198 0 0.385-0.118 0.464-0.313 0.104-0.256-0.020-0.547-0.277-0.651z"></path>
<path fill="#f0c419" d="M10.38 4.338c-0.108-0.255-0.402-0.374-0.655-0.265s-0.373 0.402-0.265 0.655l0.586 1.381c0.081 0.19 0.266 0.305 0.46 0.305 0.065 0 0.132-0.013 0.195-0.040 0.254-0.108 0.373-0.402 0.265-0.655l-0.586-1.381z"></path>
<path fill="#f0c419" d="M20.057 3.983c-0.255-0.104-0.547 0.021-0.651 0.277l-0.562 1.39c-0.104 0.256 0.021 0.547 0.277 0.651 0.061 0.024 0.125 0.037 0.187 0.037 0.198 0 0.385-0.118 0.464-0.313l0.562-1.391c0.104-0.255-0.021-0.547-0.277-0.651z"></path>
<path fill="#f0c419" d="M24.163 20.5c0.535-1.225 0.838-2.577 0.838-4 0-5.523-4.477-10-10-10s-10 4.477-10 10c0 1.423 0.302 2.775 0.838 4h18.325z"></path>
<path fill="#ede21b" d="M21.337 20.5c0.733-1.158 1.163-2.527 1.163-4 0-4.142-3.358-7.5-7.5-7.5s-7.5 3.358-7.5 7.5c0 1.472 0.43 2.842 1.163 4h12.673z"></path>
<path fill="#f29c1f" d="M29.5 20h-29c-0.276 0-0.5 0.224-0.5 0.5s0.224 0.5 0.5 0.5h29c0.276 0 0.5-0.224 0.5-0.5s-0.224-0.5-0.5-0.5z"></path>
<path fill="#f29c1f" d="M27 22.5h-24c-0.276 0-0.5 0.224-0.5 0.5s0.224 0.5 0.5 0.5h24c0.276 0 0.5-0.224 0.5-0.5s-0.224-0.5-0.5-0.5z"></path>
<path fill="#f29c1f" d="M24.5 25h-19c-0.276 0-0.5 0.224-0.5 0.5s0.224 0.5 0.5 0.5h19c0.276 0 0.5-0.224 0.5-0.5s-0.224-0.5-0.5-0.5z"></path>
<path fill="#f29c1f" d="M22.5 27.5h-15c-0.276 0-0.5 0.224-0.5 0.5s0.224 0.5 0.5 0.5h15c0.276 0 0.5-0.224 0.5-0.5s-0.224-0.5-0.5-0.5z"></path>
<path fill="#546a79" d="M18.854 14.94l-3.854-3.854-3.854 3.854 0.707 0.707 2.647-2.647v5.793h1v-5.793l2.647 2.647z"></path>
</svg>
<svg id="sunset" width="30" height="30" viewBox="0 0 30 30" x="138" y="46">
<path fill="#f0c419" d="M15 1.5c-0.276 0-0.5 0.224-0.5 0.5v3c0 0.276 0.224 0.5 0.5 0.5s0.5-0.224 0.5-0.5v-3c0-0.276-0.224-0.5-0.5-0.5z"></path>
<path fill="#f0c419" d="M29.5 16h-3c-0.276 0-0.5 0.224-0.5 0.5s0.224 0.5 0.5 0.5h3c0.276 0 0.5-0.224 0.5-0.5s-0.224-0.5-0.5-0.5z"></path>
<path fill="#f0c419" d="M3.5 16h-3c-0.276 0-0.5 0.224-0.5 0.5s0.224 0.5 0.5 0.5h3c0.276 0 0.5-0.224 0.5-0.5s-0.224-0.5-0.5-0.5z"></path>
<path fill="#f0c419" d="M26.354 5.146c-0.195-0.195-0.511-0.195-0.707 0l-2.868 2.868c-0.195 0.195-0.195 0.511 0 0.707 0.098 0.098 0.225 0.147 0.353 0.147s0.256-0.049 0.353-0.147l2.868-2.868c0.195-0.195 0.195-0.511 0-0.707z"></path>
<path fill="#f0c419" d="M4.353 5.146c-0.195-0.195-0.511-0.195-0.707 0s-0.195 0.511 0 0.707l2.868 2.868c0.098 0.098 0.225 0.147 0.353 0.147s0.256-0.049 0.353-0.147c0.195-0.195 0.195-0.511 0-0.707l-2.868-2.868z"></path>
<path fill="#f0c419" d="M27.427 11.225c-0.108-0.254-0.402-0.373-0.655-0.265l-1.381 0.586c-0.254 0.108-0.373 0.402-0.265 0.655 0.081 0.19 0.266 0.305 0.46 0.305 0.065 0 0.132-0.013 0.195-0.040l1.381-0.586c0.254-0.108 0.373-0.402 0.265-0.655z"></path>
<path fill="#f0c419" d="M4.524 11.729l-1.391-0.562c-0.256-0.104-0.547 0.020-0.651 0.277s0.021 0.547 0.277 0.651l1.391 0.562c0.061 0.024 0.125 0.037 0.187 0.037 0.198 0 0.385-0.118 0.464-0.313 0.104-0.256-0.020-0.547-0.277-0.651z"></path>
<path fill="#f0c419" d="M10.38 4.338c-0.108-0.255-0.402-0.374-0.655-0.265s-0.373 0.402-0.265 0.655l0.586 1.381c0.081 0.19 0.266 0.305 0.46 0.305 0.065 0 0.132-0.013 0.195-0.040 0.254-0.108 0.373-0.402 0.265-0.655l-0.586-1.381z"></path>
<path fill="#f0c419" d="M20.057 3.983c-0.255-0.104-0.547 0.021-0.651 0.277l-0.562 1.39c-0.104 0.256 0.021 0.547 0.277 0.651 0.061 0.024 0.125 0.037 0.187 0.037 0.198 0 0.385-0.118 0.464-0.313l0.562-1.391c0.104-0.255-0.021-0.547-0.277-0.651z"></path>
<path fill="#f0c419" d="M24.163 20.5c0.535-1.225 0.838-2.577 0.838-4 0-5.523-4.477-10-10-10s-10 4.477-10 10c0 1.423 0.302 2.775 0.838 4h18.325z"></path>
<path fill="#ede21b" d="M21.337 20.5c0.733-1.158 1.163-2.527 1.163-4 0-4.142-3.358-7.5-7.5-7.5s-7.5 3.358-7.5 7.5c0 1.472 0.43 2.842 1.163 4h12.673z"></path>
<path fill="#f29c1f" d="M29.5 20h-29c-0.276 0-0.5 0.224-0.5 0.5s0.224 0.5 0.5 0.5h29c0.276 0 0.5-0.224 0.5-0.5s-0.224-0.5-0.5-0.5z"></path>
<path fill="#f29c1f" d="M27 22.5h-24c-0.276 0-0.5 0.224-0.5 0.5s0.224 0.5 0.5 0.5h24c0.276 0 0.5-0.224 0.5-0.5s-0.224-0.5-0.5-0.5z"></path>
<path fill="#f29c1f" d="M24.5 25h-19c-0.276 0-0.5 0.224-0.5 0.5s0.224 0.5 0.5 0.5h19c0.276 0 0.5-0.224 0.5-0.5s-0.224-0.5-0.5-0.5z"></path>
<path fill="#f29c1f" d="M22.5 27.5h-15c-0.276 0-0.5 0.224-0.5 0.5s0.224 0.5 0.5 0.5h15c0.276 0 0.5-0.224 0.5-0.5s-0.224-0.5-0.5-0.5z"></path>
<path fill="#546a79" d="M18.147 14.146l-2.647 2.647v-5.793h-1v5.793l-2.647-2.647-0.707 0.707 3.854 3.854 3.854-3.854z"></path>
</svg>
<svg id="min-temperature" width="30" height="30" viewBox="0 0 30 30" x="184" y="46">
<path fill="#d0e8f9" d="M18 19.394v-15.893c0-1.657-1.343-3-3-3v0c-1.657 0-3 1.343-3 3v15.893c-1.671 1.090-2.715 3.060-2.462 5.256 0.287 2.505 2.327 4.538 4.834 4.816 3.318 0.368 6.128-2.22 6.128-5.465 0-1.93-0.996-3.625-2.5-4.606z"></path>
<path fill="#e57e25" d="M15.5 21.55v-10.551c0-0.277-0.224-0.5-0.5-0.5s-0.5 0.224-0.5 0.5v10.551c-1.141 0.232-2 1.24-2 2.45 0 1.38 1.119 2.5 2.5 2.5s2.5-1.119 2.5-2.5c0-1.209-0.859-2.218-2-2.45z"></path>
<path fill="#fff" d="M13 3h-1c-0.276 0-0.5 0.224-0.5 0.5s0.224 0.5 0.5 0.5h1c0.276 0 0.5-0.224 0.5-0.5s-0.224-0.5-0.5-0.5z"></path>
<path fill="#fff" d="M13 5.5h-1c-0.276 0-0.5 0.224-0.5 0.5s0.224 0.5 0.5 0.5h1c0.276 0 0.5-0.224 0.5-0.5s-0.224-0.5-0.5-0.5z"></path>
<path fill="#fff" d="M13 8h-1c-0.276 0-0.5 0.224-0.5 0.5s0.224 0.5 0.5 0.5h1c0.276 0 0.5-0.224 0.5-0.5s-0.224-0.5-0.5-0.5z"></path>
<path fill="#fff" d="M13 10.5h-1c-0.276 0-0.5 0.224-0.5 0.5s0.224 0.5 0.5 0.5h1c0.276 0 0.5-0.224 0.5-0.5s-0.224-0.5-0.5-0.5z"></path>
<path fill="#fff" d="M13 13h-1c-0.276 0-0.5 0.224-0.5 0.5s0.224 0.5 0.5 0.5h1c0.276 0 0.5-0.224 0.5-0.5s-0.224-0.5-0.5-0.5z"></path>
<path fill="#fff" d="M13 15.5h-1c-0.276 0-0.5 0.224-0.5 0.5s0.224 0.5 0.5 0.5h1c0.276 0 0.5-0.224 0.5-0.5s-0.224-0.5-0.5-0.5z"></path>
<path fill="#fff" d="M13 18h-1c-0.276 0-0.5 0.224-0.5 0.5s0.224 0.5 0.5 0.5h1c0.276 0 0.5-0.224 0.5-0.5s-0.224-0.5-0.5-0.5z"></path>
<path fill="#fff" d="M17 5h1c0.276 0 0.5-0.224 0.5-0.5s-0.224-0.5-0.5-0.5h-1c-0.276 0-0.5 0.224-0.5 0.5s0.224 0.5 0.5 0.5z"></path>
<path fill="#fff" d="M18 6.5h-1c-0.276 0-0.5 0.224-0.5 0.5s0.224 0.5 0.5 0.5h1c0.276 0 0.5-0.224 0.5-0.5s-0.224-0.5-0.5-0.5z"></path>
<path fill="#fff" d="M18 9h-1c-0.276 0-0.5 0.224-0.5 0.5s0.224 0.5 0.5 0.5h1c0.276 0 0.5-0.224 0.5-0.5s-0.224-0.5-0.5-0.5z"></path>
<path fill="#fff" d="M18 11.5h-1c-0.276 0-0.5 0.224-0.5 0.5s0.224 0.5 0.5 0.5h1c0.276 0 0.5-0.224 0.5-0.5s-0.224-0.5-0.5-0.5z"></path>
<path fill="#fff" d="M18 14h-1c-0.276 0-0.5 0.224-0.5 0.5s0.224 0.5 0.5 0.5h1c0.276 0 0.5-0.224 0.5-0.5s-0.224-0.5-0.5-0.5z"></path>
<path fill="#fff" d="M18 16.5h-1c-0.276 0-0.5 0.224-0.5 0.5s0.224 0.5 0.5 0.5h1c0.276 0 0.5-0.224 0.5-0.5s-0.224-0.5-0.5-0.5z"></path>
<path fill="#cad1d8" d="M15 30v0c-0.226 0-0.457-0.013-0.684-0.038-2.743-0.304-4.962-2.514-5.275-5.256-0.251-2.191 0.687-4.303 2.46-5.575v-15.63c0-1.929 1.57-3.5 3.5-3.5s3.5 1.57 3.5 3.5v15.63c1.57 1.128 2.5 2.928 2.5 4.869 0 1.603-0.624 3.11-1.757 4.243s-2.64 1.757-4.243 1.757zM15 1c-1.379 0-2.5 1.122-2.5 2.5v16.164l-0.227 0.149c-1.599 1.044-2.458 2.875-2.239 4.779 0.262 2.282 2.108 4.123 4.393 4.376 1.532 0.173 3.030-0.353 4.109-1.432 0.945-0.945 1.464-2.2 1.464-3.536 0-1.694-0.85-3.259-2.273-4.187l-0.227-0.148v-16.164c0-1.379-1.122-2.5-2.5-2.5z"></path>
</svg>
<svg id="wind" width="30" height="30" viewBox="0 0 30 30" x="230" y="46">
<path fill="#bdd7e5" d="M12.682 13.867c-1.994 2.646-4.326 4.253-5.208 3.588s0.019-3.349 2.014-5.995c1.994-2.646 4.326-4.253 5.208-3.588s-0.019 3.349-2.014 5.995z"></path>
<path fill="#abcadd" d="M7.973 18.106c-0.31 0-0.579-0.084-0.8-0.25-1.311-0.989-0.029-4.117 1.915-6.696 1.775-2.355 3.827-3.938 5.109-3.938 0.309 0 0.578 0.084 0.8 0.25 1.311 0.989 0.030 4.116-1.914 6.696-1.776 2.355-3.828 3.938-5.109 3.938zM14.197 8.222c-0.797 0-2.578 1.24-4.31 3.539-2.142 2.842-2.519 4.989-2.112 5.295 0.043 0.032 0.11 0.050 0.198 0.050 0.796 0 2.578-1.24 4.31-3.539 2.142-2.842 2.518-4.989 2.112-5.295-0.044-0.032-0.11-0.050-0.198-0.050z"></path>
<path fill="#e4eff7" d="M27.967 21.003l-13.27-13.13c0.882 0.665-0.020 3.349-2.013 5.995s-4.326 4.253-5.208 3.588l16.28 9.137c0.661 0.498 1.808 0.092 3.305-1.892 1.494-1.985 1.569-3.2 0.907-3.698z"></path>
<path fill="#abcadd" d="M24.344 27.287c0 0 0 0 0 0-0.315 0-0.612-0.094-0.862-0.272l-16.068-9.018c-0.086-0.038-0.167-0.085-0.241-0.141l0.546-0.835 0.125 0.070c0.036 0.010 0.080 0.016 0.13 0.016 0.796 0 2.578-1.24 4.31-3.539 1.949-2.587 2.51-4.716 2.163-5.238l-0.103-0.101 0.652-0.755c0.074 0.056 0.142 0.121 0.202 0.194l13.098 12.96c0.293 0.233 0.717 0.758 0.515 1.766-0.147 0.734-0.602 1.612-1.355 2.609-1.142 1.516-2.19 2.286-3.113 2.286zM9.109 17.801l14.946 8.393c0.084 0.063 0.177 0.093 0.29 0.093v0c0.269 0 1.032-0.184 2.315-1.887 0.823-1.092 1.093-1.801 1.173-2.204 0.077-0.385 0.022-0.653-0.165-0.794l-0.051-0.044-12.135-12.007c-0.237 1.426-1.247 3.289-2.399 4.816-1.314 1.743-2.781 3.063-3.973 3.632z"></path>
<path fill="#abcadd" d="M3.636 7.5h11v1h-11v-1z"></path>
<path fill="#e64c3c" d="M24.263 22.594c0.707-0.938 1.3-1.921 1.73-2.841l-0.762-0.753c-0.401 0.945-1.013 1.992-1.768 2.992-0.753 1-1.591 1.885-2.385 2.53l0.93 0.523c0.764-0.665 1.546-1.512 2.254-2.451z"></path>
<path fill="#e64c3c" d="M21.867 20.789c0.82-1.087 1.477-2.208 1.907-3.231l-0.773-0.765c-0.38 1.030-1.070 2.248-1.933 3.394s-1.845 2.146-2.732 2.795l0.948 0.532c0.865-0.696 1.762-1.637 2.582-2.726z"></path>
<path fill="#e64c3c" d="M19.471 18.983c0.932-1.237 1.655-2.518 2.067-3.638l-0.792-0.784c-0.325 1.103-1.082 2.504-2.073 3.82s-2.132 2.431-3.103 3.047l0.972 0.546c0.962-0.705 1.996-1.753 2.929-2.991z"></path>
<path fill="#abcadd" d="M4.097 7.806l4.001 9.5-0.922 0.388-4.001-9.5 0.922-0.388z"></path>
<path fill="none" stroke="#7f8c8d" stroke-linejoin="miter" stroke-linecap="butt" stroke-miterlimit="10" stroke-width="1" d="M3.636 24.5v-20"></path>
<path fill="#bdc3c7" stroke="#95a5a5" stroke-linejoin="miter" stroke-linecap="butt" stroke-miterlimit="10" stroke-width="1" d="M5.636 2.5c0 1.105-0.895 2-2 2s-2-0.895-2-2c0-1.105 0.895-2 2-2s2 0.895 2 2z"></path>
<path fill="#bdc3c7" stroke="#7f8c8d" stroke-linejoin="miter" stroke-linecap="butt" stroke-miterlimit="10" stroke-width="1" d="M2.636 24.5h2v3h-2v-3z"></path>
<path fill="#bdc3c7" stroke="#7f8c8d" stroke-linejoin="miter" stroke-linecap="butt" stroke-miterlimit="10" stroke-width="1" d="M1.636 27.5h4v2h-4v-2z"></path>
</svg>
<svg id="circle-right" width="30" height="30" viewBox="0 0 30 30" x="0" y="92">
<path d="M15 0c-8.284 0-15 6.716-15 15s6.716 15 15 15 15-6.716 15-15-6.716-15-15-15zM15 27.188c-6.731 0-12.188-5.457-12.188-12.188s5.457-12.188 12.188-12.188 12.188 5.457 12.188 12.188-5.457 12.188-12.188 12.188z"></path>
<path d="M10.393 20.705l2.652 2.652 8.357-8.357-8.357-8.357-2.652 2.652 5.705 5.705z"></path>
</svg>
<svg id="circle-left" width="30" height="30" viewBox="0 0 30 30" x="46" y="92">
<path d="M15 30c8.284 0 15-6.716 15-15s-6.716-15-15-15-15 6.716-15 15 6.716 15 15 15zM15 2.813c6.731 0 12.188 5.457 12.188 12.188s-5.457 12.188-12.188 12.188-12.188-5.457-12.188-12.188 5.457-12.188 12.188-12.188z"></path>
<path d="M19.607 9.295l-2.652-2.652-8.357 8.357 8.357 8.357 2.652-2.652-5.705-5.705z"></path>
</svg>
</svg>
