<?xml version="1.0" encoding="utf-8"?>
<!-- Generated by IcoMoon.io -->
<svg version="1.1" xmlns="http://www.w3.org/2000/svg" xmlns:xlink="http://www.w3.org/1999/xlink" width="1840" height="100" viewBox="0 0 1840 100">
<svg id="f01d" width="100" height="100" viewBox="0 0 100 100" x="0" y="0">
<path fill="#d0e8f9" d="M47.597 60.097c-0.94-0.525-2.133-0.182-2.655 0.762l-4.018 7.249c-0.524 0.943-0.182 2.133 0.764 2.655 0.299 0.166 0.623 0.244 0.943 0.244 0.688 0 1.354-0.363 1.711-1.006l4.018-7.249c0.522-0.943 0.18-2.133-0.764-2.655z"></path>
<path fill="#d0e8f9" d="M52.979 46.361l-4.020 7.249c-0.524 0.943-0.182 2.133 0.762 2.655 0.301 0.166 0.625 0.244 0.945 0.244 0.688 0 1.354-0.363 1.711-1.006l4.020-7.249c0.524-0.943 0.182-2.133-0.762-2.655-0.947-0.524-2.135-0.182-2.657 0.762z"></path>
<path fill="#d0e8f9" d="M54.323 76.458c-0.945-0.525-2.131-0.184-2.657 0.762l-4.020 7.247c-0.524 0.943-0.182 2.133 0.762 2.655 0.301 0.166 0.625 0.244 0.945 0.244 0.688 0 1.352-0.363 1.711-1.006l4.020-7.247c0.524-0.943 0.182-2.133-0.762-2.655z"></path>
<path fill="#d0e8f9" d="M62.357 61.96c-0.942-0.525-2.131-0.184-2.655 0.762l-4.018 7.247c-0.524 0.943-0.182 2.133 0.764 2.655 0.299 0.166 0.623 0.244 0.943 0.244 0.688 0 1.354-0.363 1.711-1.006l4.018-7.247c0.522-0.942 0.18-2.131-0.764-2.655z"></path>
<path fill="#d0e8f9" d="M32.838 58.233c-0.942-0.525-2.133-0.184-2.655 0.762l-4.018 7.247c-0.524 0.943-0.182 2.133 0.764 2.655 0.299 0.166 0.623 0.244 0.943 0.244 0.688 0 1.354-0.363 1.711-1.006l4.018-7.247c0.522-0.943 0.182-2.133-0.764-2.655z"></path>
<path fill="#d0e8f9" d="M24.806 72.729c-0.947-0.525-2.131-0.184-2.657 0.762l-4.020 7.247c-0.524 0.943-0.182 2.133 0.762 2.655 0.301 0.166 0.625 0.244 0.945 0.244 0.688 0 1.352-0.363 1.711-1.006l4.020-7.247c0.522-0.943 0.18-2.131-0.762-2.655z"></path>
<path fill="#d0e8f9" d="M39.565 74.593c-0.947-0.525-2.133-0.184-2.657 0.762l-4.020 7.249c-0.524 0.943-0.182 2.133 0.762 2.655 0.301 0.166 0.625 0.244 0.945 0.244 0.688 0 1.354-0.363 1.711-1.006l4.020-7.249c0.522-0.942 0.18-2.131-0.762-2.655z"></path>
<path fill="#d0e8f9" d="M31.525 89.089c-0.942-0.525-2.133-0.182-2.655 0.762l-4.018 7.249c-0.524 0.943-0.182 2.133 0.764 2.655 0.299 0.166 0.623 0.244 0.943 0.244 0.688 0 1.354-0.363 1.711-1.006l4.018-7.249c0.524-0.943 0.182-2.131-0.764-2.655z"></path>
<path fill="#d0e8f9" d="M40.874 43.736c-0.94-0.525-2.133-0.184-2.655 0.762l-4.018 7.247c-0.524 0.943-0.182 2.133 0.764 2.655 0.299 0.166 0.623 0.244 0.943 0.244 0.688 0 1.354-0.363 1.711-1.006l4.018-7.247c0.522-0.942 0.18-2.131-0.764-2.655z"></path>
<path fill="#d0e8f9" d="M77.115 63.824c-0.94-0.524-2.133-0.182-2.655 0.762l-4.018 7.249c-0.524 0.943-0.182 2.133 0.764 2.655 0.299 0.166 0.623 0.244 0.943 0.244 0.688 0 1.354-0.363 1.711-1.006l4.018-7.249c0.522-0.943 0.182-2.131-0.764-2.655z"></path>
<path fill="#d0e8f9" d="M85.154 49.328c-0.947-0.524-2.135-0.182-2.657 0.762l-4.020 7.249c-0.524 0.943-0.182 2.133 0.762 2.655 0.301 0.166 0.625 0.244 0.945 0.244 0.688 0 1.354-0.363 1.711-1.006l4.020-7.249c0.522-0.943 0.18-2.131-0.762-2.655z"></path>
<path fill="#d0e8f9" d="M65.791 27.271c0.301 0.166 0.625 0.244 0.945 0.244 0.688 0 1.354-0.363 1.711-1.006l4.020-7.249c0.524-0.943 0.182-2.133-0.762-2.655-0.945-0.524-2.135-0.184-2.657 0.762l-4.020 7.249c-0.522 0.943-0.18 2.133 0.762 2.655z"></path>
<path fill="#d0e8f9" d="M73.831 12.775c0.299 0.166 0.623 0.244 0.943 0.244 0.688 0 1.354-0.363 1.711-1.006l4.018-7.249c0.524-0.943 0.182-2.133-0.764-2.655-0.942-0.524-2.133-0.182-2.655 0.762l-4.018 7.249c-0.524 0.943-0.182 2.133 0.764 2.655z"></path>
<path fill="#d0e8f9" d="M70.395 47.465c-0.945-0.525-2.133-0.184-2.657 0.762l-4.020 7.247c-0.524 0.943-0.182 2.133 0.762 2.655 0.301 0.166 0.625 0.244 0.945 0.244 0.688 0 1.352-0.363 1.711-1.006l4.020-7.247c0.522-0.943 0.18-2.133-0.762-2.655z"></path>
<path fill="#d0e8f9" d="M75.773 33.729l-4.018 7.247c-0.524 0.943-0.182 2.133 0.764 2.655 0.299 0.166 0.623 0.244 0.943 0.244 0.688 0 1.354-0.363 1.711-1.006l4.018-7.247c0.524-0.943 0.182-2.133-0.764-2.655-0.94-0.524-2.133-0.182-2.655 0.762z"></path>
<path fill="#d0e8f9" d="M51.035 25.407c0.299 0.166 0.623 0.244 0.943 0.244 0.688 0 1.354-0.363 1.711-1.006l4.018-7.247c0.524-0.943 0.182-2.133-0.764-2.655-0.94-0.525-2.133-0.184-2.655 0.762l-4.018 7.247c-0.522 0.942-0.182 2.131 0.764 2.655z"></path>
<path fill="#d0e8f9" d="M42.999 39.903c0.299 0.166 0.623 0.244 0.943 0.244 0.688 0 1.354-0.363 1.711-1.006l4.018-7.247c0.524-0.943 0.182-2.133-0.764-2.655-0.94-0.525-2.131-0.184-2.655 0.762l-4.018 7.247c-0.522 0.943-0.18 2.133 0.764 2.655z"></path>
<path fill="#d0e8f9" d="M20.758 51.535c-0.942-0.525-2.133-0.182-2.655 0.762l-4.018 7.249c-0.524 0.943-0.182 2.133 0.764 2.655 0.299 0.166 0.623 0.244 0.943 0.244 0.688 0 1.354-0.363 1.711-1.006l4.018-7.249c0.522-0.943 0.18-2.131-0.764-2.655z"></path>
<path fill="#d0e8f9" d="M22.882 47.705c0.301 0.166 0.625 0.244 0.945 0.244 0.688 0 1.354-0.363 1.711-1.006l4.020-7.249c0.524-0.943 0.182-2.133-0.762-2.655-0.945-0.525-2.135-0.184-2.657 0.762l-4.020 7.249c-0.524 0.942-0.182 2.131 0.762 2.655z"></path>
<path fill="#d0e8f9" d="M38.952 18.711c0.301 0.166 0.625 0.244 0.945 0.244 0.688 0 1.354-0.363 1.711-1.006l4.020-7.249c0.524-0.943 0.182-2.133-0.762-2.655-0.947-0.525-2.135-0.184-2.657 0.762l-4.018 7.249c-0.524 0.943-0.182 2.133 0.76 2.655z"></path>
<path fill="#d0e8f9" d="M30.92 33.209c0.299 0.166 0.623 0.244 0.943 0.244 0.688 0 1.354-0.363 1.711-1.006l4.018-7.249c0.524-0.943 0.182-2.133-0.764-2.655-0.942-0.525-2.131-0.182-2.655 0.762l-4.018 7.249c-0.522 0.943-0.182 2.131 0.764 2.655z"></path>
<path fill="#d0e8f9" d="M61.013 31.865l-4.018 7.249c-0.524 0.943-0.182 2.133 0.764 2.655 0.299 0.166 0.623 0.244 0.943 0.244 0.688 0 1.354-0.363 1.711-1.006l4.018-7.249c0.524-0.943 0.182-2.133-0.764-2.655-0.942-0.524-2.131-0.182-2.655 0.762z"></path>
<path fill="#d0e8f9" d="M59.071 10.911c0.299 0.166 0.623 0.244 0.943 0.244 0.688 0 1.354-0.363 1.711-1.006l4.018-7.247c0.524-0.943 0.182-2.133-0.764-2.655-0.94-0.525-2.133-0.184-2.655 0.762l-4.018 7.247c-0.522 0.942-0.18 2.131 0.764 2.655z"></path>
</svg>
<svg id="s01d" width="100" height="100" viewBox="0 0 100 100" x="116" y="0">
<path fill="#e6e7e8" d="M78.857 56.617c-0.526-0.91-1.69-1.221-2.594-0.695l-5.374 3.103v-6.206c0-1.048-0.849-1.899-1.899-1.899s-1.899 0.851-1.899 1.899v6.206l-5.374-3.103c-0.908-0.524-2.070-0.215-2.594 0.695s-0.213 2.070 0.695 2.594l5.374 3.103-5.374 3.103c-0.91 0.524-1.221 1.686-0.695 2.594 0.353 0.61 0.989 0.95 1.646 0.95 0.323 0 0.649-0.082 0.948-0.254l5.374-3.103v6.206c0 1.048 0.849 1.899 1.899 1.899s1.899-0.851 1.899-1.899v-6.206l5.374 3.103c0.298 0.173 0.625 0.254 0.948 0.254 0.657 0 1.295-0.34 1.646-0.95 0.524-0.91 0.213-2.070-0.695-2.594l-5.374-3.103 5.374-3.103c0.908-0.524 1.219-1.686 0.695-2.594z"></path>
<path fill="#e6e7e8" d="M38.979 56.617c-0.526-0.91-1.69-1.221-2.594-0.695l-5.374 3.103v-6.206c0-1.048-0.849-1.899-1.899-1.899s-1.899 0.851-1.899 1.899v6.206l-5.374-3.103c-0.908-0.524-2.070-0.215-2.594 0.695s-0.213 2.070 0.695 2.594l5.374 3.103-5.374 3.103c-0.91 0.524-1.221 1.686-0.695 2.594 0.353 0.61 0.989 0.95 1.646 0.95 0.323 0 0.649-0.082 0.948-0.254l5.374-3.103v6.206c0 1.048 0.849 1.899 1.899 1.899s1.899-0.851 1.899-1.899v-6.206l5.374 3.103c0.298 0.173 0.625 0.254 0.948 0.254 0.657 0 1.295-0.34 1.646-0.95 0.524-0.91 0.213-2.070-0.695-2.594l-5.374-3.103 5.374-3.103c0.908-0.524 1.219-1.686 0.695-2.594z"></path>
<path fill="#e6e7e8" d="M78.857 7.244c-0.526-0.91-1.69-1.221-2.594-0.695l-5.374 3.103v-6.206c0-1.048-0.849-1.899-1.899-1.899s-1.899 0.851-1.899 1.899v6.206l-5.376-3.103c-0.908-0.526-2.070-0.213-2.594 0.695s-0.213 2.070 0.695 2.594l5.374 3.103-5.374 3.103c-0.91 0.524-1.221 1.686-0.695 2.594 0.353 0.61 0.989 0.95 1.646 0.95 0.323 0 0.649-0.082 0.948-0.254l5.374-3.103v6.206c0 1.048 0.849 1.899 1.899 1.899s1.899-0.851 1.899-1.899v-6.206l5.374 3.103c0.298 0.173 0.625 0.254 0.948 0.254 0.657 0 1.295-0.34 1.646-0.95 0.524-0.91 0.213-2.070-0.695-2.594l-5.374-3.103 5.374-3.103c0.91-0.524 1.221-1.686 0.697-2.594z"></path>
<path fill="#e6e7e8" d="M38.979 7.244c-0.526-0.91-1.69-1.221-2.594-0.695l-5.374 3.103v-6.206c0-1.048-0.849-1.899-1.899-1.899s-1.899 0.851-1.899 1.899v6.206l-5.376-3.103c-0.908-0.526-2.070-0.213-2.594 0.695s-0.213 2.070 0.695 2.594l5.374 3.103-5.374 3.103c-0.91 0.524-1.221 1.686-0.695 2.594 0.353 0.61 0.989 0.95 1.646 0.95 0.323 0 0.649-0.082 0.948-0.254l5.374-3.103v6.206c0 1.048 0.849 1.899 1.899 1.899s1.899-0.851 1.899-1.899v-6.206l5.374 3.103c0.298 0.173 0.625 0.254 0.948 0.254 0.657 0 1.295-0.34 1.646-0.95 0.524-0.91 0.213-2.070-0.695-2.594l-5.374-3.103 5.374-3.103c0.91-0.524 1.221-1.686 0.697-2.594z"></path>
<path fill="#e6e7e8" d="M59.868 81.362c-0.526-0.91-1.69-1.221-2.594-0.695l-5.374 3.103v-6.206c0-1.048-0.849-1.899-1.899-1.899s-1.899 0.851-1.899 1.899v6.206l-5.376-3.103c-0.908-0.524-2.070-0.213-2.594 0.695s-0.213 2.070 0.695 2.594l5.374 3.103-5.374 3.103c-0.91 0.524-1.221 1.686-0.695 2.594 0.353 0.61 0.989 0.95 1.646 0.95 0.323 0 0.649-0.082 0.948-0.254l5.374-3.103v6.206c0 1.048 0.849 1.899 1.899 1.899s1.899-0.851 1.899-1.899v-6.206l5.374 3.103c0.298 0.173 0.625 0.254 0.948 0.254 0.657 0 1.295-0.34 1.646-0.95 0.524-0.91 0.213-2.070-0.695-2.594l-5.374-3.103 5.374-3.103c0.91-0.524 1.221-1.684 0.697-2.594z"></path>
<path fill="#e6e7e8" d="M19.99 81.362c-0.526-0.91-1.69-1.221-2.594-0.695l-5.374 3.103v-6.206c0-1.048-0.849-1.899-1.899-1.899s-1.899 0.851-1.899 1.899v6.206l-5.376-3.103c-0.908-0.524-2.070-0.213-2.594 0.695s-0.213 2.070 0.695 2.594l5.374 3.103-5.374 3.103c-0.91 0.524-1.221 1.686-0.695 2.594 0.353 0.61 0.989 0.95 1.646 0.95 0.323 0 0.649-0.082 0.948-0.254l5.374-3.103v6.206c0 1.048 0.849 1.899 1.899 1.899s1.899-0.851 1.899-1.899v-6.206l5.374 3.103c0.298 0.173 0.625 0.254 0.948 0.254 0.657 0 1.295-0.34 1.646-0.95 0.524-0.91 0.213-2.070-0.695-2.594l-5.374-3.103 5.374-3.103c0.91-0.524 1.221-1.684 0.697-2.594z"></path>
<path fill="#e6e7e8" d="M99.746 81.362c-0.526-0.91-1.69-1.221-2.594-0.695l-5.374 3.103v-6.206c0-1.048-0.849-1.899-1.899-1.899s-1.899 0.851-1.899 1.899v6.206l-5.376-3.103c-0.908-0.524-2.070-0.213-2.594 0.695s-0.213 2.070 0.695 2.594l5.374 3.103-5.374 3.103c-0.91 0.524-1.221 1.686-0.695 2.594 0.353 0.61 0.989 0.95 1.646 0.95 0.323 0 0.649-0.082 0.948-0.254l5.374-3.103v6.206c0 1.048 0.849 1.899 1.899 1.899s1.899-0.851 1.899-1.899v-6.206l5.374 3.103c0.298 0.173 0.625 0.254 0.948 0.254 0.657 0 1.295-0.34 1.646-0.95 0.524-0.91 0.213-2.070-0.695-2.594l-5.374-3.103 5.374-3.103c0.91-0.524 1.221-1.684 0.697-2.594z"></path>
<path fill="#e6e7e8" d="M40.132 43.383c0.353 0.61 0.989 0.95 1.646 0.95 0.323 0 0.649-0.082 0.948-0.254l5.374-3.103v6.206c0 1.048 0.849 1.899 1.899 1.899s1.899-0.851 1.899-1.899v-6.206l5.374 3.103c0.298 0.173 0.625 0.254 0.948 0.254 0.657 0 1.295-0.34 1.646-0.95 0.524-0.91 0.213-2.070-0.695-2.594l-5.374-3.103 5.374-3.103c0.91-0.524 1.221-1.686 0.695-2.594-0.526-0.91-1.69-1.221-2.594-0.695l-5.374 3.103v-6.206c0-1.048-0.849-1.899-1.899-1.899s-1.899 0.851-1.899 1.899v6.206l-5.374-3.103c-0.908-0.526-2.070-0.215-2.594 0.695s-0.213 2.070 0.695 2.594l5.374 3.103-5.374 3.103c-0.908 0.524-1.219 1.686-0.695 2.594z"></path>
<path fill="#e6e7e8" d="M0.254 43.383c0.353 0.61 0.989 0.95 1.646 0.95 0.323 0 0.649-0.082 0.948-0.254l5.374-3.103v6.206c0 1.048 0.849 1.899 1.899 1.899s1.899-0.851 1.899-1.899v-6.206l5.374 3.103c0.298 0.173 0.625 0.254 0.948 0.254 0.657 0 1.295-0.34 1.646-0.95 0.524-0.91 0.213-2.070-0.695-2.594l-5.374-3.103 5.374-3.103c0.91-0.524 1.221-1.686 0.695-2.594-0.526-0.91-1.69-1.221-2.594-0.695l-5.374 3.103v-6.206c0-1.048-0.849-1.899-1.899-1.899s-1.899 0.851-1.899 1.899v6.206l-5.374-3.103c-0.908-0.526-2.070-0.215-2.594 0.695s-0.213 2.070 0.695 2.594l5.374 3.103-5.374 3.103c-0.908 0.524-1.219 1.686-0.695 2.594z"></path>
<path fill="#e6e7e8" d="M99.050 40.789l-5.374-3.103 5.374-3.103c0.91-0.524 1.221-1.686 0.695-2.594-0.526-0.91-1.69-1.221-2.594-0.695l-5.374 3.103v-6.206c0-1.048-0.849-1.899-1.899-1.899s-1.899 0.851-1.899 1.899v6.206l-5.376-3.103c-0.908-0.526-2.070-0.215-2.594 0.695s-0.213 2.070 0.695 2.594l5.374 3.103-5.374 3.103c-0.91 0.524-1.221 1.686-0.695 2.594 0.353 0.61 0.989 0.95 1.646 0.95 0.323 0 0.649-0.082 0.948-0.254l5.374-3.103v6.206c0 1.048 0.849 1.899 1.899 1.899s1.899-0.851 1.899-1.899v-6.206l5.374 3.103c0.298 0.173 0.625 0.254 0.948 0.254 0.657 0 1.295-0.34 1.646-0.95 0.526-0.908 0.215-2.070-0.693-2.594z"></path>
</svg>
<svg id="s05d" width="100" height="100" viewBox="0 0 100 100" x="232" y="0">
<path fill="#f0c419" d="M10.203 36.212c0-0.917-0.743-1.662-1.662-1.662h-6.878c-0.919 0-1.662 0.745-1.662 1.662s0.743 1.662 1.662 1.662h6.878c0.917 0 1.662-0.743 1.662-1.662z"></path>
<path fill="#f0c419" d="M34.898 1.316c-0.919 0-1.662 0.745-1.662 1.662v6.876c0 0.917 0.743 1.662 1.662 1.662s1.662-0.745 1.662-1.662v-6.876c0-0.917-0.743-1.662-1.662-1.662z"></path>
<path fill="#f0c419" d="M10.861 9.826c-0.65-0.65-1.7-0.65-2.35 0s-0.65 1.7 0 2.35l6.574 6.574c0.324 0.324 0.75 0.487 1.175 0.487s0.851-0.163 1.175-0.487c0.65-0.65 0.65-1.7 0-2.35l-6.574-6.574z"></path>
<path fill="#f0c419" d="M61.287 9.826c-0.65-0.65-1.7-0.65-2.35 0l-6.574 6.574c-0.65 0.65-0.65 1.7 0 2.35 0.324 0.324 0.75 0.487 1.175 0.487s0.851-0.163 1.175-0.487l6.574-6.574c0.65-0.65 0.65-1.702 0-2.35z"></path>
<path fill="#f0c419" d="M24.786 8.135c-0.361-0.846-1.343-1.238-2.18-0.881-0.846 0.359-1.24 1.334-0.881 2.179l1.344 3.166c0.269 0.633 0.884 1.014 1.53 1.014 0.218 0 0.439-0.043 0.65-0.133 0.846-0.359 1.24-1.334 0.881-2.179l-1.344-3.166z"></path>
<path fill="#f0c419" d="M46.685 7.045c-0.853-0.341-1.82 0.068-2.164 0.919l-1.288 3.187c-0.344 0.851 0.067 1.82 0.917 2.164 0.204 0.081 0.415 0.121 0.623 0.121 0.658 0 1.28-0.392 1.541-1.040l1.288-3.187c0.344-0.851-0.068-1.82-0.917-2.164z"></path>
<path fill="#f0c419" d="M9.987 44.983l-3.164 1.344c-0.846 0.359-1.24 1.334-0.881 2.179 0.269 0.633 0.884 1.014 1.53 1.014 0.218 0 0.439-0.043 0.65-0.133l3.164-1.344c0.846-0.359 1.24-1.334 0.881-2.179-0.361-0.848-1.344-1.238-2.18-0.881z"></path>
<path fill="#f0c419" d="M6.648 26.591l3.187 1.288c0.204 0.081 0.415 0.121 0.623 0.121 0.658 0 1.28-0.392 1.541-1.039 0.344-0.851-0.067-1.82-0.917-2.164l-3.187-1.288c-0.851-0.341-1.82 0.068-2.164 0.917-0.344 0.851 0.067 1.82 0.917 2.164z"></path>
<path fill="#ede21b" d="M21.282 54.606c1.195 0.131 2.356 0.371 3.468 0.729-0.741-3.368 0.007-7.031 2.37-9.901 3.111-3.777 8.106-5.090 12.501-3.696l0.020 0.007c1.356-3.415 4.297-6.137 8.146-7.042 1.369-0.322 2.735-0.374 4.056-0.214-0.012-0.258-0.038-0.51-0.038-0.771 0-3.428 1.004-6.617 2.712-9.314-4.015-6.649-11.285-11.112-19.619-11.112-12.659 0-22.921 10.261-22.921 22.921 0 7.551 3.667 14.225 9.304 18.394z"></path>
<path fill="#d0e8f9" d="M99.959 45.457h-0.135c0.058 0.505 0.098 1.015 0.098 1.537 0 0.919-0.743 1.662-1.662 1.662s-1.662-0.743-1.662-1.662c0-5.499-4.472-9.971-9.971-9.971s-9.971 4.472-9.971 9.971c0 0.919-0.743 1.662-1.662 1.662s-1.662-0.743-1.662-1.662c0-6.753 5.067-12.335 11.596-13.173-0.376-8.373-7.285-15.077-15.75-15.077-8.493 0-15.423 6.747-15.755 15.16 1.378 0.326 2.712 0.864 3.952 1.63 3.018 1.87 5.128 4.802 5.943 8.259 0.209 0.894-0.344 1.788-1.236 1.999-0.894 0.201-1.788-0.344-1.999-1.236-1.26-5.354-6.645-8.684-11.988-7.423-5.353 1.26-8.683 6.637-7.423 11.99 0.209 0.892-0.344 1.786-1.238 1.997-0.126 0.030-0.254 0.043-0.381 0.043-0.753 0-1.436-0.517-1.617-1.281-0.489-2.079-0.445-4.158 0.020-6.105-3.42-0.5-6.875 0.791-9.128 3.526-2.091 2.541-2.7 5.813-1.953 8.782 0.002 0.020 0.012 0.037 0.013 0.057 0.508 1.971 1.612 3.805 3.299 5.196 0.708 0.585 0.809 1.63 0.228 2.34-0.329 0.399-0.804 0.605-1.285 0.605-0.372 0-0.745-0.123-1.055-0.379-2.022-1.665-3.47-3.84-4.231-6.283-6.719-1.752-13.783 1.075-17.432 7.082-2.189 3.603-2.845 7.843-1.845 11.94 1 4.098 3.535 7.559 7.139 9.749 0.784 0.477 1.034 1.497 0.557 2.283-0.312 0.515-0.861 0.798-1.421 0.798-0.221 0-0.44-0.060-0.651-0.151 2.625 1.555 5.648 2.508 8.88 2.647l13.641 0.005c8.819-0.141 16.373-5.583 19.594-13.281 3.262 7.799 10.973 13.294 19.941 13.294 15.577 0 28.25-12.672 28.25-28.25v-16.618l-0.040-1.663z"></path>
<path fill="#abcadd" d="M88.253 33.934c-0.382-10.201-8.779-18.389-19.074-18.389-10.206 0-18.545 8.049-19.060 18.13-0.927 0.020-1.86 0.13-2.785 0.347-3.882 0.914-6.954 3.46-8.689 6.734-4.789-0.972-9.718 0.72-12.879 4.557-2.079 2.526-3.122 5.663-3.008 8.905-7.694-1.386-15.521 2.034-19.682 8.88-2.652 4.362-3.445 9.495-2.235 14.454s4.279 9.15 8.641 11.802c0.269 0.165 0.568 0.243 0.863 0.243 0.562 0 1.108-0.284 1.421-0.798 0.477-0.786 0.228-1.806-0.557-2.283-3.604-2.19-6.139-5.652-7.139-9.749-1-4.096-0.344-8.337 1.845-11.94 3.649-6.006 10.713-8.832 17.432-7.082 0.761 2.445 2.21 4.618 4.231 6.283 0.311 0.254 0.683 0.379 1.055 0.379 0.48 0 0.956-0.206 1.285-0.605 0.583-0.71 0.48-1.757-0.228-2.34-1.688-1.389-2.79-3.225-3.299-5.196-0.002-0.020-0.012-0.037-0.013-0.057-0.748-2.97-0.138-6.242 1.953-8.782 2.253-2.735 5.708-4.026 9.128-3.526-0.465 1.949-0.51 4.026-0.020 6.105 0.179 0.766 0.864 1.281 1.617 1.281 0.126 0 0.254-0.015 0.381-0.043 0.894-0.211 1.447-1.105 1.238-1.997-1.26-5.353 2.071-10.73 7.423-11.99 5.343-1.261 10.728 2.069 11.988 7.423 0.211 0.892 1.105 1.437 1.999 1.236 0.892-0.211 1.446-1.105 1.236-1.999-0.814-3.456-2.925-6.389-5.943-8.259-1.24-0.768-2.574-1.304-3.952-1.63 0.332-8.413 7.262-15.16 15.755-15.16 8.465 0 15.376 6.702 15.75 15.077-6.529 0.837-11.596 6.419-11.596 13.173 0 0.919 0.743 1.662 1.662 1.662s1.662-0.743 1.662-1.662c0-5.499 4.472-9.971 9.971-9.971s10.047 4.472 10.047 9.971c0 0.046 0 2.205 0 4.985 0 0.917 0.745 1.662 1.662 1.662s1.662-0.745 1.662-1.662v-4.985c-0.002-6.778-5.181-12.378-11.747-13.183z"></path>
<path fill="#fff" d="M96.393 69.775l-4.703-2.715 4.703-2.715c0.796-0.459 1.069-1.476 0.608-2.27-0.46-0.796-1.479-1.069-2.27-0.608l-4.703 2.715v-5.431c0-0.917-0.743-1.662-1.662-1.662s-1.662 0.745-1.662 1.662v5.431l-4.703-2.715c-0.794-0.459-1.811-0.186-2.27 0.608s-0.186 1.811 0.608 2.27l4.703 2.715-4.703 2.715c-0.796 0.459-1.069 1.476-0.608 2.27 0.309 0.533 0.866 0.831 1.441 0.831 0.283 0 0.568-0.071 0.829-0.223l4.703-2.715v5.431c0 0.917 0.743 1.662 1.662 1.662s1.662-0.745 1.662-1.662v-5.431l4.703 2.715c0.261 0.151 0.547 0.223 0.829 0.223 0.575 0 1.133-0.297 1.441-0.831 0.46-0.796 0.188-1.811-0.608-2.27z"></path>
<path fill="#fff" d="M62.106 62.074c-0.46-0.796-1.479-1.069-2.27-0.608l-4.703 2.715v-5.431c0-0.917-0.743-1.662-1.662-1.662s-1.662 0.745-1.662 1.662v5.431l-4.703-2.715c-0.794-0.459-1.811-0.186-2.27 0.608s-0.186 1.811 0.608 2.27l4.703 2.715-4.703 2.715c-0.796 0.459-1.069 1.476-0.608 2.27 0.309 0.533 0.866 0.831 1.441 0.831 0.283 0 0.568-0.071 0.829-0.223l4.703-2.715v5.431c0 0.917 0.743 1.662 1.662 1.662s1.662-0.745 1.662-1.662v-5.431l4.703 2.715c0.261 0.151 0.547 0.223 0.829 0.223 0.575 0 1.133-0.297 1.441-0.831 0.459-0.796 0.186-1.811-0.608-2.27l-4.703-2.715 4.703-2.715c0.794-0.459 1.067-1.476 0.608-2.27z"></path>
<path fill="#abc5d3" d="M80.385 83.729c-0.46-0.796-1.479-1.069-2.27-0.608l-4.703 2.715v-5.431c0-0.917-0.743-1.662-1.662-1.662s-1.662 0.745-1.662 1.662v5.431l-4.703-2.715c-0.794-0.459-1.811-0.188-2.27 0.608s-0.186 1.811 0.608 2.27l4.703 2.715-4.703 2.715c-0.796 0.459-1.069 1.476-0.608 2.27 0.309 0.533 0.866 0.831 1.441 0.831 0.283 0 0.568-0.071 0.829-0.223l4.703-2.715v5.431c0 0.917 0.743 1.662 1.662 1.662s1.662-0.745 1.662-1.662v-5.431l4.703 2.715c0.261 0.151 0.547 0.223 0.829 0.223 0.575 0 1.133-0.297 1.441-0.831 0.459-0.796 0.186-1.811-0.608-2.27l-4.703-2.715 4.703-2.715c0.794-0.459 1.067-1.474 0.608-2.27z"></path>
</svg>
<svg id="t01d" width="100" height="100" viewBox="0 0 100 100" x="348" y="0">
<path fill="#f0c419" d="M60.19 17.879l-1.597-2.647c-5.123-8.493-14.078-13.564-23.954-13.564-15.433 0-27.987 12.554-27.987 27.987 0 8.806 4.245 17.206 11.358 22.467l1.085 0.802 1.342 0.148c0.882 0.097 1.722 0.272 2.495 0.52l8.283 2.662-1.872-8.496c-0.445-2.023 0.048-4.090 1.355-5.676 1.272-1.543 3.148-2.428 5.151-2.428 0.687 0 1.363 0.105 1.962 0.295l4.483 1.495 1.745-4.393c0.808-2.033 2.553-3.545 4.665-4.042 0.75-0.175 1.555-0.213 2.327-0.118l5.833 0.703-0.24-5.871-0.035-0.568c0-2.352 0.672-4.658 1.945-6.665l1.657-2.61z"></path>
<path fill="#d0e8f9" d="M99.96 38.335h-0.135c0.058 0.507 0.098 1.018 0.098 1.542 0 0.922-0.745 1.667-1.667 1.667s-1.667-0.745-1.667-1.667c0-5.515-4.485-10-10-10s-10 4.485-10 10c0 0.922-0.745 1.667-1.667 1.667s-1.667-0.745-1.667-1.667c0-6.773 5.081-12.371 11.629-13.211-0.377-8.398-7.306-15.121-15.796-15.121-8.518 0-15.468 6.766-15.801 15.204 1.382 0.327 2.72 0.867 3.963 1.635 3.027 1.875 5.143 4.816 5.96 8.283 0.21 0.897-0.345 1.793-1.24 2.005-0.897 0.202-1.793-0.345-2.005-1.24-1.263-5.37-6.665-8.71-12.023-7.445-5.368 1.263-8.708 6.656-7.445 12.024 0.21 0.895-0.345 1.792-1.242 2.003-0.127 0.030-0.255 0.043-0.382 0.043-0.755 0-1.44-0.518-1.622-1.285-0.49-2.085-0.447-4.17 0.020-6.123-3.43-0.502-6.895 0.793-9.155 3.537-2.097 2.548-2.708 5.83-1.958 8.808 0.002 0.020 0.012 0.037 0.013 0.057 0.51 1.977 1.617 3.817 3.308 5.211 0.71 0.587 0.812 1.635 0.228 2.347-0.33 0.4-0.807 0.607-1.288 0.607-0.373 0-0.747-0.123-1.058-0.38-2.028-1.67-3.48-3.851-4.243-6.301-6.738-1.757-13.823 1.078-17.482 7.103-2.195 3.613-2.853 7.866-1.85 11.974 1.003 4.11 3.545 7.581 7.16 9.778 0.787 0.478 1.037 1.502 0.558 2.29-0.313 0.517-0.863 0.8-1.425 0.8-0.222 0-0.442-0.060-0.653-0.152 2.633 1.56 5.665 2.515 8.906 2.655l13.681 0.005c8.845-0.142 16.421-5.6 19.651-13.319 3.271 7.821 11.004 13.333 19.999 13.333 15.623 0 28.332-12.709 28.332-28.332v-16.666l-0.040-1.668z"></path>
<path fill="#abcadd" d="M88.222 26.779c-0.385-10.231-8.806-18.442-19.129-18.442-10.236 0-18.599 8.073-19.116 18.182-0.93 0.020-1.865 0.13-2.793 0.348-3.893 0.917-6.975 3.47-8.715 6.753-4.803-0.975-9.746 0.722-12.916 4.57-2.085 2.533-3.132 5.68-3.017 8.931-7.716-1.39-15.566 2.040-19.739 8.906-2.66 4.375-3.455 9.523-2.242 14.496s4.291 9.176 8.666 11.836c0.27 0.165 0.57 0.243 0.865 0.243 0.563 0 1.112-0.285 1.425-0.8 0.478-0.788 0.228-1.812-0.558-2.29-3.615-2.197-6.156-5.668-7.16-9.778-1.003-4.108-0.345-8.361 1.85-11.974 3.66-6.023 10.744-8.858 17.482-7.103 0.763 2.452 2.217 4.631 4.243 6.301 0.312 0.255 0.685 0.38 1.058 0.38 0.482 0 0.958-0.207 1.288-0.607 0.585-0.712 0.482-1.762-0.228-2.347-1.693-1.393-2.798-3.235-3.308-5.211-0.002-0.020-0.012-0.037-0.013-0.057-0.75-2.978-0.138-6.26 1.958-8.808 2.26-2.743 5.725-4.038 9.155-3.537-0.467 1.955-0.512 4.038-0.020 6.123 0.18 0.768 0.867 1.285 1.622 1.285 0.127 0 0.255-0.015 0.382-0.043 0.897-0.212 1.452-1.108 1.242-2.003-1.263-5.368 2.077-10.761 7.445-12.024 5.358-1.265 10.759 2.075 12.023 7.445 0.212 0.895 1.108 1.442 2.005 1.24 0.895-0.212 1.45-1.108 1.24-2.005-0.817-3.467-2.933-6.408-5.96-8.283-1.243-0.77-2.582-1.308-3.963-1.635 0.333-8.438 7.283-15.204 15.801-15.204 8.49 0 15.421 6.721 15.796 15.121-6.548 0.84-11.629 6.438-11.629 13.211 0 0.922 0.745 1.667 1.667 1.667s1.667-0.745 1.667-1.667c0-5.515 4.485-10 10-10s10.076 4.485 10.076 10c0 0.047 0 2.212 0 5 0 0.92 0.747 1.667 1.667 1.667s1.667-0.747 1.667-1.667v-5c-0.003-6.798-5.198-12.414-11.781-13.221z"></path>
<path fill="#abcadd" d="M80.001 61.667c0.92 0 1.667-0.747 1.667-1.667 0-2.403 0-0.833 0-0.833 0-4.135 3.365-7.5 7.5-7.5s7.5 3.365 7.5 7.5c0 0.922 0.747 1.667 1.667 1.667s1.667-0.745 1.667-1.667c0-5.973-4.86-10.833-10.833-10.833-5.691 0-10.404 4.415-10.833 10v1.667c0 0.92 0.747 1.667 1.667 1.667z"></path>
<path fill="#abc5d3" d="M44.874 84.362c-0.168-0.408-0.493-0.733-0.902-0.902-0.203-0.083-0.42-0.128-0.637-0.128h-5.976l13.821-13.821c0.652-0.652 0.652-1.705 0-2.357s-1.705-0.652-2.357 0l-16.664 16.664c-0.155 0.153-0.277 0.338-0.362 0.543-0.168 0.407-0.168 0.867 0 1.273 0.168 0.408 0.493 0.733 0.902 0.902 0.203 0.085 0.42 0.128 0.637 0.128h5.976l-8.821 8.821c-0.652 0.652-0.652 1.705 0 2.357 0.325 0.325 0.752 0.488 1.178 0.488s0.853-0.163 1.178-0.488l11.664-11.664c0.155-0.153 0.277-0.338 0.362-0.543 0.168-0.408 0.168-0.867 0-1.273z"></path>
<path fill="#abc5d3" d="M71.18 60.489c-0.652-0.652-1.705-0.652-2.357 0l-16.664 16.664c-0.155 0.153-0.277 0.338-0.362 0.543-0.168 0.407-0.168 0.867 0 1.273 0.168 0.408 0.493 0.733 0.902 0.902 0.203 0.085 0.42 0.128 0.637 0.128h5.976l-8.821 8.821c-0.652 0.652-0.652 1.705 0 2.357 0.325 0.325 0.752 0.488 1.178 0.488s0.853-0.163 1.178-0.488l11.664-11.664c0.155-0.153 0.277-0.338 0.362-0.543 0.168-0.407 0.168-0.865 0-1.273s-0.493-0.733-0.902-0.902c-0.203-0.083-0.42-0.128-0.637-0.128h-5.976l13.821-13.821c0.652-0.652 0.652-1.707 0-2.357z"></path>
</svg>
<svg id="d01d" width="100" height="100" viewBox="0 0 100 100" x="464" y="0">
<path fill="#f0c419" d="M10.202 36.239c0-0.917-0.743-1.662-1.662-1.662h-6.878c-0.919 0-1.662 0.745-1.662 1.662s0.743 1.662 1.662 1.662h6.878c0.917 0 1.662-0.745 1.662-1.662z"></path>
<path fill="#f0c419" d="M34.898 1.341c-0.919 0-1.662 0.745-1.662 1.662v6.876c0 0.917 0.743 1.662 1.662 1.662s1.662-0.745 1.662-1.662v-6.876c0-0.917-0.743-1.662-1.662-1.662z"></path>
<path fill="#f0c419" d="M10.86 9.849c-0.65-0.65-1.7-0.65-2.35 0s-0.65 1.7 0 2.35l6.574 6.574c0.324 0.324 0.75 0.487 1.175 0.487s0.851-0.163 1.175-0.487c0.65-0.65 0.65-1.7 0-2.35l-6.574-6.574z"></path>
<path fill="#f0c419" d="M61.287 9.849c-0.65-0.65-1.7-0.65-2.35 0l-6.574 6.576c-0.65 0.65-0.65 1.7 0 2.35 0.324 0.324 0.75 0.487 1.175 0.487s0.851-0.163 1.175-0.487l6.574-6.574c0.65-0.65 0.65-1.702 0-2.351z"></path>
<path fill="#f0c419" d="M24.786 8.159c-0.361-0.846-1.343-1.238-2.18-0.881-0.846 0.359-1.24 1.334-0.881 2.179l1.344 3.166c0.269 0.633 0.884 1.014 1.53 1.014 0.218 0 0.439-0.043 0.65-0.133 0.846-0.359 1.24-1.334 0.881-2.179l-1.344-3.166z"></path>
<path fill="#f0c419" d="M46.685 7.069c-0.853-0.341-1.82 0.068-2.164 0.919l-1.288 3.187c-0.344 0.851 0.067 1.82 0.917 2.164 0.203 0.081 0.414 0.121 0.621 0.121 0.658 0 1.28-0.392 1.541-1.040l1.288-3.187c0.346-0.851-0.067-1.82-0.916-2.164z"></path>
<path fill="#f0c419" d="M9.986 45.008l-3.164 1.344c-0.846 0.359-1.24 1.334-0.881 2.179 0.269 0.633 0.884 1.014 1.53 1.014 0.218 0 0.439-0.043 0.65-0.133l3.164-1.344c0.846-0.359 1.24-1.334 0.881-2.179-0.361-0.846-1.344-1.238-2.18-0.881z"></path>
<path fill="#f0c419" d="M6.647 26.617l3.187 1.288c0.204 0.081 0.415 0.121 0.623 0.121 0.658 0 1.28-0.392 1.541-1.039 0.344-0.851-0.067-1.82-0.917-2.164l-3.187-1.29c-0.851-0.341-1.82 0.068-2.164 0.917-0.344 0.853 0.067 1.821 0.917 2.165z"></path>
<path fill="#ede21b" d="M21.281 54.633c1.195 0.131 2.356 0.371 3.468 0.729-0.741-3.368 0.007-7.031 2.37-9.901 3.111-3.777 8.106-5.090 12.502-3.696l0.020 0.007c1.356-3.415 4.297-6.137 8.146-7.043 1.369-0.322 2.735-0.374 4.056-0.214-0.012-0.258-0.038-0.51-0.038-0.771 0-3.428 1.004-6.617 2.712-9.314-4.015-6.649-11.285-11.112-19.619-11.112-12.66 0-22.921 10.262-22.921 22.921 0 7.551 3.668 14.223 9.304 18.394z"></path>
<path fill="#d0e8f9" d="M99.96 45.482h-0.135c0.058 0.505 0.098 1.015 0.098 1.537 0 0.919-0.743 1.662-1.662 1.662s-1.662-0.743-1.662-1.662c0-5.499-4.472-9.971-9.971-9.971s-9.971 4.472-9.971 9.971c0 0.919-0.743 1.662-1.662 1.662s-1.662-0.743-1.662-1.662c0-6.754 5.067-12.335 11.596-13.173-0.376-8.374-7.285-15.077-15.75-15.077-8.493 0-15.423 6.747-15.755 15.161 1.378 0.326 2.712 0.864 3.952 1.63 3.018 1.87 5.128 4.803 5.943 8.259 0.209 0.894-0.344 1.788-1.236 1.999-0.894 0.201-1.788-0.344-1.999-1.236-1.26-5.354-6.646-8.685-11.988-7.423-5.353 1.26-8.683 6.637-7.423 11.99 0.209 0.892-0.344 1.786-1.238 1.997-0.126 0.030-0.254 0.043-0.381 0.043-0.753 0-1.436-0.517-1.617-1.281-0.489-2.079-0.445-4.158 0.020-6.105-3.42-0.5-6.875 0.791-9.128 3.526-2.091 2.541-2.7 5.813-1.953 8.783 0.002 0.020 0.012 0.037 0.013 0.057 0.508 1.971 1.612 3.805 3.299 5.196 0.708 0.585 0.809 1.63 0.228 2.34-0.329 0.399-0.804 0.605-1.285 0.605-0.372 0-0.745-0.123-1.055-0.379-2.022-1.665-3.47-3.84-4.231-6.283-6.719-1.752-13.783 1.075-17.432 7.083-2.189 3.603-2.845 7.844-1.845 11.94 1 4.098 3.535 7.559 7.139 9.75 0.784 0.477 1.034 1.497 0.557 2.283-0.312 0.515-0.861 0.798-1.421 0.798-0.221 0-0.44-0.060-0.651-0.151 2.626 1.555 5.648 2.508 8.881 2.647l13.642 0.005c8.819-0.141 16.374-5.584 19.594-13.281 3.262 7.799 10.973 13.294 19.942 13.294 15.578 0 28.25-12.673 28.25-28.25v-16.618l-0.040-1.663z"></path>
<path fill="#abcadd" d="M88.254 33.959c-0.382-10.202-8.779-18.389-19.074-18.389-10.207 0-18.546 8.050-19.061 18.13-0.927 0.020-1.86 0.13-2.785 0.347-3.882 0.914-6.955 3.46-8.69 6.734-4.789-0.972-9.718 0.72-12.879 4.557-2.079 2.526-3.122 5.663-3.008 8.906-7.694-1.386-15.521 2.034-19.682 8.881-2.652 4.362-3.445 9.496-2.235 14.454s4.279 9.15 8.641 11.802c0.269 0.165 0.568 0.243 0.862 0.243 0.562 0 1.108-0.284 1.421-0.798 0.477-0.786 0.228-1.806-0.557-2.283-3.604-2.19-6.139-5.652-7.139-9.75-1-4.096-0.344-8.337 1.845-11.94 3.649-6.006 10.714-8.832 17.432-7.083 0.761 2.445 2.21 4.618 4.231 6.283 0.311 0.254 0.683 0.379 1.055 0.379 0.48 0 0.956-0.206 1.285-0.605 0.583-0.71 0.48-1.757-0.228-2.34-1.688-1.389-2.79-3.226-3.299-5.196-0.002-0.020-0.012-0.037-0.013-0.057-0.748-2.97-0.138-6.242 1.953-8.783 2.253-2.735 5.708-4.027 9.128-3.526-0.465 1.949-0.51 4.027-0.020 6.105 0.179 0.766 0.864 1.281 1.617 1.281 0.126 0 0.254-0.015 0.381-0.043 0.894-0.211 1.447-1.105 1.238-1.997-1.26-5.353 2.071-10.73 7.423-11.99 5.343-1.261 10.729 2.069 11.988 7.423 0.211 0.892 1.105 1.437 1.999 1.236 0.892-0.211 1.446-1.105 1.236-1.999-0.814-3.457-2.925-6.39-5.943-8.259-1.24-0.768-2.574-1.304-3.952-1.63 0.332-8.414 7.262-15.161 15.755-15.161 8.465 0 15.377 6.702 15.75 15.077-6.529 0.837-11.596 6.42-11.596 13.173 0 0.919 0.743 1.662 1.662 1.662s1.662-0.743 1.662-1.662c0-5.499 4.472-9.971 9.971-9.971s10.047 4.472 10.047 9.971c0 0.046 0 2.205 0 4.985 0 0.917 0.745 1.662 1.662 1.662s1.662-0.745 1.662-1.662v-4.985c-0.002-6.777-5.181-12.377-11.747-13.183z"></path>
<path fill="#abc5d3" d="M53.952 80.866l-4.985 4.985c-0.65 0.65-0.65 1.7 0 2.35 0.324 0.324 0.75 0.487 1.175 0.487s0.851-0.163 1.175-0.487l4.985-4.985c0.65-0.65 0.65-1.7 0-2.35s-1.702-0.648-2.35 0z"></path>
<path fill="#abc5d3" d="M43.981 90.837l-4.985 4.985c-0.65 0.65-0.65 1.7 0 2.35 0.324 0.324 0.75 0.487 1.175 0.487s0.851-0.163 1.175-0.487l4.985-4.985c0.65-0.65 0.65-1.7 0-2.35s-1.702-0.648-2.35 0z"></path>
<path fill="#fff" d="M79.567 70.895c-0.65-0.65-1.7-0.65-2.35 0l-4.985 4.985c-0.65 0.65-0.65 1.7 0 2.35 0.324 0.324 0.75 0.487 1.175 0.487s0.851-0.163 1.175-0.487l4.985-4.985c0.65-0.648 0.65-1.7 0-2.35z"></path>
<path fill="#fff" d="M67.246 80.866l-4.985 4.985c-0.65 0.65-0.65 1.7 0 2.35 0.324 0.324 0.75 0.487 1.175 0.487s0.851-0.163 1.175-0.487l4.985-4.985c0.65-0.65 0.65-1.7 0-2.35s-1.702-0.648-2.35 0z"></path>
<path fill="#fff" d="M52.978 70.895c-0.65-0.65-1.7-0.65-2.35 0l-4.985 4.985c-0.65 0.65-0.65 1.7 0 2.35 0.324 0.324 0.75 0.487 1.175 0.487s0.851-0.163 1.175-0.487l4.985-4.985c0.65-0.648 0.65-1.7 0-2.35z"></path>
<path fill="#fff" d="M66.272 70.895c-0.65-0.65-1.7-0.65-2.35 0l-4.985 4.985c-0.65 0.65-0.65 1.7 0 2.35 0.324 0.324 0.75 0.487 1.175 0.487s0.851-0.163 1.175-0.487l4.985-4.985c0.65-0.648 0.65-1.7 0-2.35z"></path>
<path fill="#abc5d3" d="M43.007 80.866c-0.65-0.65-1.7-0.65-2.35 0l-4.985 4.985c-0.65 0.65-0.65 1.7 0 2.35 0.324 0.324 0.75 0.487 1.175 0.487s0.851-0.163 1.175-0.487l4.985-4.985c0.65-0.648 0.65-1.7 0-2.35z"></path>
</svg>
<svg id="c01d" width="100" height="100" viewBox="0 0 100 100" x="580" y="0">
<path fill="#f0c419" d="M50 0c-0.92 0-1.667 0.747-1.667 1.667v10c0 0.92 0.747 1.667 1.667 1.667s1.667-0.747 1.667-1.667v-10c0-0.92-0.747-1.667-1.667-1.667z"></path>
<path fill="#f0c419" d="M50 86.667c-0.92 0-1.667 0.747-1.667 1.667v10c0 0.92 0.747 1.667 1.667 1.667s1.667-0.747 1.667-1.667v-10c0-0.92-0.747-1.667-1.667-1.667z"></path>
<path fill="#f0c419" d="M98.333 48.333h-10c-0.92 0-1.667 0.747-1.667 1.667s0.747 1.667 1.667 1.667h10c0.92 0 1.667-0.747 1.667-1.667s-0.747-1.667-1.667-1.667z"></path>
<path fill="#f0c419" d="M13.333 50c0-0.92-0.747-1.667-1.667-1.667h-10c-0.92 0-1.667 0.747-1.667 1.667s0.747 1.667 1.667 1.667h10c0.92 0 1.667-0.747 1.667-1.667z"></path>
<path fill="#f0c419" d="M77.107 24.56c0.427 0 0.853-0.163 1.178-0.488l9.56-9.56c0.652-0.652 0.652-1.705 0-2.357s-1.705-0.652-2.357 0l-9.56 9.56c-0.652 0.652-0.652 1.705 0 2.357 0.325 0.327 0.752 0.488 1.178 0.488z"></path>
<path fill="#f0c419" d="M21.715 75.928l-9.56 9.56c-0.652 0.652-0.652 1.705 0 2.357 0.325 0.325 0.752 0.488 1.178 0.488s0.853-0.163 1.178-0.488l9.56-9.56c0.652-0.652 0.652-1.705 0-2.357s-1.705-0.652-2.357 0z"></path>
<path fill="#f0c419" d="M78.285 75.928c-0.652-0.652-1.705-0.652-2.357 0s-0.652 1.705 0 2.357l9.56 9.56c0.325 0.325 0.752 0.488 1.178 0.488s0.853-0.163 1.178-0.488c0.652-0.652 0.652-1.705 0-2.357l-9.56-9.56z"></path>
<path fill="#f0c419" d="M14.512 12.155c-0.652-0.652-1.705-0.652-2.357 0s-0.652 1.705 0 2.357l9.56 9.56c0.325 0.325 0.752 0.488 1.178 0.488s0.853-0.163 1.178-0.488c0.652-0.652 0.652-1.705 0-2.357l-9.56-9.56z"></path>
<path fill="#f0c419" d="M83.752 35.673c0.27 0.635 0.887 1.017 1.535 1.017 0.217 0 0.438-0.043 0.65-0.133l4.603-1.953c0.847-0.36 1.243-1.338 0.883-2.185s-1.34-1.243-2.185-0.883l-4.603 1.953c-0.848 0.36-1.243 1.338-0.883 2.185z"></path>
<path fill="#f0c419" d="M16.248 64.327c-0.36-0.847-1.338-1.243-2.185-0.883l-4.603 1.953c-0.847 0.36-1.243 1.338-0.883 2.185 0.27 0.635 0.887 1.017 1.535 1.017 0.217 0 0.438-0.043 0.65-0.133l4.603-1.953c0.848-0.36 1.243-1.338 0.883-2.185z"></path>
<path fill="#f0c419" d="M90.802 64.688l-4.635-1.875c-0.852-0.345-1.825 0.068-2.17 0.922s0.068 1.825 0.922 2.17l4.637 1.873c0.205 0.082 0.417 0.122 0.623 0.122 0.66 0 1.285-0.393 1.547-1.043 0.343-0.852-0.068-1.823-0.923-2.168z"></path>
<path fill="#f0c419" d="M9.198 35.313l4.635 1.873c0.205 0.082 0.417 0.122 0.623 0.122 0.66 0 1.285-0.393 1.547-1.043 0.345-0.853-0.068-1.825-0.922-2.17l-4.637-1.873c-0.855-0.345-1.825 0.067-2.17 0.922-0.343 0.852 0.068 1.823 0.923 2.17z"></path>
<path fill="#f0c419" d="M66.512 84.635c-0.36-0.847-1.338-1.242-2.185-0.883-0.847 0.36-1.243 1.338-0.883 2.185l1.953 4.603c0.27 0.635 0.887 1.017 1.535 1.017 0.217 0 0.438-0.043 0.65-0.133 0.847-0.36 1.243-1.338 0.883-2.185l-1.953-4.603z"></path>
<path fill="#f0c419" d="M35.023 16.382c0.217 0 0.438-0.043 0.65-0.133 0.847-0.36 1.243-1.338 0.883-2.185l-1.953-4.603c-0.358-0.848-1.337-1.245-2.185-0.883-0.847 0.36-1.243 1.338-0.883 2.185l1.953 4.603c0.268 0.635 0.887 1.017 1.535 1.017z"></path>
<path fill="#f0c419" d="M36.265 83.997c-0.852-0.342-1.825 0.067-2.17 0.922l-1.873 4.637c-0.345 0.853 0.068 1.825 0.922 2.17 0.205 0.082 0.417 0.122 0.623 0.122 0.66 0 1.285-0.393 1.547-1.043l1.873-4.637c0.345-0.853-0.068-1.825-0.922-2.17z"></path>
<path fill="#f0c419" d="M64.358 16.125c0.66 0 1.285-0.393 1.547-1.043l1.873-4.637c0.345-0.853-0.068-1.825-0.922-2.17-0.852-0.345-1.825 0.068-2.17 0.922l-1.873 4.637c-0.345 0.853 0.068 1.825 0.922 2.17 0.205 0.082 0.417 0.122 0.623 0.122z"></path>
<path fill="#f0c419" d="M83.333 50c0 18.409-14.924 33.333-33.333 33.333s-33.333-14.924-33.333-33.333c0-18.409 14.924-33.333 33.333-33.333s33.333 14.924 33.333 33.333z"></path>
<path fill="#ede21b" d="M75 50c0 13.807-11.193 25-25 25s-25-11.193-25-25c0-13.807 11.193-25 25-25s25 11.193 25 25z"></path>
</svg>
<svg id="a01d" width="100" height="100" viewBox="0 0 100 100" x="696" y="0">
<path fill="#abcadd" d="M88.175 18.42c-0.383-10.219-8.794-18.42-19.106-18.42-10.224 0-18.577 8.063-19.093 18.161-0.929 0.020-1.863 0.13-2.79 0.348-3.888 0.916-6.966 3.466-8.704 6.745-4.797-0.974-9.734 0.721-12.901 4.564-2.082 2.53-3.128 5.673-3.013 8.921-7.707-1.388-15.547 2.038-19.715 8.896-2.657 4.37-3.451 9.511-2.239 14.479s4.286 9.165 8.656 11.822c0.27 0.165 0.569 0.243 0.864 0.243 0.563 0 1.11-0.285 1.423-0.799 0.478-0.787 0.228-1.809-0.558-2.287-3.61-2.194-6.149-5.661-7.151-9.766-1.002-4.103-0.345-8.351 1.848-11.96 3.655-6.016 10.732-8.847 17.462-7.094 0.762 2.449 2.214 4.626 4.238 6.294 0.311 0.255 0.684 0.379 1.057 0.379 0.481 0 0.957-0.206 1.287-0.606 0.584-0.711 0.481-1.759-0.228-2.344-1.691-1.392-2.795-3.231-3.304-5.205-0.002-0.020-0.012-0.037-0.013-0.057-0.749-2.975-0.138-6.252 1.956-8.797 2.257-2.74 5.718-4.033 9.144-3.532-0.466 1.953-0.511 4.033-0.020 6.116 0.18 0.767 0.866 1.283 1.62 1.283 0.126 0 0.255-0.015 0.381-0.043 0.896-0.211 1.45-1.107 1.24-2.001-1.262-5.362 2.074-10.748 7.436-12.010 5.352-1.263 10.747 2.072 12.008 7.436 0.211 0.894 1.107 1.44 2.003 1.238 0.894-0.211 1.448-1.107 1.238-2.003-0.816-3.462-2.93-6.4-5.953-8.273-1.242-0.769-2.578-1.307-3.958-1.633 0.333-8.426 7.273-15.184 15.78-15.184 8.479 0 15.402 6.713 15.777 15.103-6.54 0.839-11.616 6.43-11.616 13.195 0 0.921 0.744 1.665 1.665 1.665s1.665-0.744 1.665-1.665c0-5.508 4.479-9.988 9.987-9.988s9.988 4.479 9.988 9.988c0 0.921 0.744 1.665 1.665 1.665s1.665-0.744 1.665-1.665c0-6.79-5.112-12.4-11.689-13.207z"></path>
<path fill="#d0e8f9" d="M99.9 30.087h-0.135c0.058 0.506 0.098 1.017 0.098 1.54 0 0.921-0.744 1.665-1.665 1.665s-1.665-0.744-1.665-1.665c0-5.508-4.479-9.987-9.988-9.987s-9.987 4.479-9.987 9.987c0 0.921-0.744 1.665-1.665 1.665s-1.665-0.744-1.665-1.665c0-6.765 5.075-12.356 11.616-13.195-0.375-8.39-7.298-15.103-15.777-15.103-8.508 0-15.449 6.758-15.782 15.186 1.38 0.326 2.717 0.866 3.958 1.633 3.023 1.873 5.137 4.811 5.953 8.273 0.21 0.896-0.345 1.791-1.238 2.003-0.896 0.201-1.791-0.345-2.003-1.238-1.262-5.363-6.657-8.699-12.008-7.436-5.362 1.262-8.697 6.648-7.436 12.010 0.21 0.894-0.345 1.789-1.24 2.001-0.126 0.030-0.255 0.043-0.381 0.043-0.754 0-1.438-0.518-1.62-1.283-0.489-2.082-0.446-4.165 0.020-6.116-3.426-0.501-6.886 0.792-9.144 3.532-2.094 2.545-2.705 5.823-1.956 8.797 0.002 0.020 0.012 0.037 0.013 0.057 0.509 1.974 1.615 3.812 3.304 5.205 0.709 0.586 0.811 1.633 0.228 2.344-0.33 0.4-0.806 0.606-1.287 0.606-0.373 0-0.746-0.123-1.057-0.379-2.026-1.668-3.476-3.847-4.238-6.294-6.73-1.754-13.806 1.077-17.462 7.094-2.192 3.609-2.85 7.857-1.848 11.96 1.002 4.105 3.541 7.572 7.151 9.766 0.786 0.478 1.035 1.5 0.558 2.287-0.313 0.516-0.862 0.799-1.423 0.799-0.221 0-0.441-0.060-0.653-0.151 2.63 1.558 5.658 2.512 8.896 2.652l53.267 0.018c15.604 0 28.298-12.694 28.298-28.298v-16.646l-0.040-1.666z"></path>
<path fill="#bfddef" d="M89.953 61.715c0-6.435-5.217-11.652-11.652-11.652s-11.652 5.217-11.652 11.652c0 6.435 5.217 11.652 11.652 11.652 1.337 0 2.613-0.236 3.809-0.649 1.12 3.274 4.19 5.643 7.844 5.643 4.596 0 8.323-3.727 8.323-8.323s-3.725-8.323-8.323-8.323z"></path>
<path fill="#abcadd" d="M91.522 60.186c-0.762-6.623-6.397-11.789-13.222-11.789-7.342 0-13.317 5.974-13.317 13.317 0 0.919 0.746 1.665 1.665 1.665s1.665-0.746 1.665-1.665c0-5.508 4.479-9.988 9.987-9.988 4.999 0 9.139 3.694 9.863 8.493-4.656 0.847-8.198 4.922-8.198 9.818 0 0.919 0.746 1.665 1.665 1.665s1.665-0.746 1.665-1.665c0-3.672 2.986-6.658 6.658-6.658s6.658 2.986 6.658 6.658c0 0.919 0.746 1.665 1.665 1.665s1.665-0.746 1.665-1.665c0-4.972-3.655-9.095-8.418-9.851z"></path>
<path fill="#0096e6" d="M89.953 80.025h-79.9c-0.921 0-1.665 0.746-1.665 1.665s0.744 1.665 1.665 1.665h79.9c0.921 0 1.665-0.746 1.665-1.665s-0.744-1.665-1.665-1.665z"></path>
<path fill="#0096e6" d="M81.63 88.348h-63.254c-0.921 0-1.665 0.746-1.665 1.665s0.744 1.665 1.665 1.665h63.254c0.921 0 1.665-0.746 1.665-1.665s-0.744-1.665-1.665-1.665z"></path>
<path fill="#0096e6" d="M74.971 96.671h-49.938c-0.921 0-1.665 0.746-1.665 1.665s0.744 1.665 1.665 1.665h49.938c0.921 0 1.665-0.746 1.665-1.665s-0.744-1.665-1.665-1.665z"></path>
<path fill="#0096e6" d="M98.275 71.702h-96.546c-0.921 0-1.665 0.746-1.665 1.665s0.744 1.665 1.665 1.665h96.546c0.921 0 1.665-0.746 1.665-1.665s-0.744-1.665-1.665-1.665z"></path>
</svg>
<svg id="t04d" width="100" height="100" viewBox="0 0 100 100" x="812" y="0">
<path fill="#e6e6e6" stroke="#bdc3c7" stroke-linejoin="miter" stroke-linecap="butt" stroke-miterlimit="10" stroke-width="3.3593" d="M51.034 1.68l-16.796 28.554h10.078l-13.437 26.874h10.078l-11.757 33.593 33.593-43.67h-8.398l15.117-28.554h-6.719l10.078-16.796z"></path>
</svg>
<svg id="c04d" width="100" height="100" viewBox="0 0 100 100" x="928" y="0">
<path fill="#abcadd" d="M88.222 29.215c-0.385-10.231-8.806-18.442-19.129-18.442-10.236 0-18.599 8.073-19.116 18.182-0.93 0.020-1.865 0.13-2.793 0.348-3.893 0.917-6.975 3.47-8.715 6.753-4.803-0.975-9.746 0.722-12.916 4.57-2.085 2.533-3.132 5.68-3.017 8.931-7.716-1.39-15.566 2.040-19.739 8.906-2.66 4.375-3.455 9.523-2.242 14.496s4.291 9.176 8.666 11.836c0.27 0.165 0.57 0.243 0.865 0.243 0.563 0 1.112-0.285 1.425-0.8 0.478-0.788 0.228-1.812-0.558-2.29-3.615-2.197-6.156-5.668-7.16-9.778-1.003-4.108-0.345-8.361 1.85-11.974 3.66-6.023 10.744-8.858 17.482-7.103 0.763 2.452 2.217 4.631 4.243 6.301 0.312 0.255 0.685 0.38 1.058 0.38 0.482 0 0.958-0.207 1.288-0.607 0.585-0.712 0.482-1.762-0.228-2.347-1.693-1.393-2.798-3.235-3.308-5.211-0.002-0.020-0.012-0.037-0.013-0.057-0.75-2.978-0.138-6.26 1.958-8.808 2.26-2.743 5.725-4.038 9.155-3.537-0.467 1.955-0.512 4.038-0.020 6.123 0.18 0.768 0.867 1.285 1.622 1.285 0.127 0 0.255-0.015 0.382-0.043 0.897-0.212 1.452-1.108 1.242-2.003-1.263-5.368 2.077-10.761 7.445-12.024 5.358-1.265 10.759 2.075 12.023 7.445 0.212 0.895 1.108 1.442 2.005 1.24 0.895-0.212 1.45-1.108 1.24-2.005-0.817-3.467-2.933-6.408-5.96-8.283-1.243-0.77-2.582-1.308-3.963-1.635 0.333-8.438 7.283-15.204 15.801-15.204 8.49 0 15.421 6.721 15.796 15.121-6.548 0.84-11.629 6.438-11.629 13.211 0 0.922 0.745 1.667 1.667 1.667s1.667-0.745 1.667-1.667c0-5.515 4.485-10 10-10s10 4.485 10 10c0 0.922 0.745 1.667 1.667 1.667s1.667-0.745 1.667-1.667c-0.002-6.796-5.121-12.413-11.704-13.221z"></path>
<path fill="#d0e8f9" d="M99.96 40.896h-0.135c0.058 0.507 0.098 1.018 0.098 1.542 0 0.922-0.745 1.667-1.667 1.667s-1.667-0.745-1.667-1.667c0-5.515-4.485-10-10-10s-10 4.485-10 10c0 0.922-0.745 1.667-1.667 1.667s-1.667-0.745-1.667-1.667c0-6.773 5.081-12.371 11.629-13.211-0.377-8.398-7.306-15.121-15.796-15.121-8.518 0-15.468 6.766-15.801 15.204 1.382 0.327 2.72 0.867 3.963 1.635 3.027 1.875 5.143 4.816 5.96 8.283 0.21 0.897-0.345 1.793-1.24 2.005-0.897 0.202-1.793-0.345-2.005-1.24-1.263-5.37-6.665-8.71-12.023-7.445-5.368 1.263-8.708 6.656-7.445 12.024 0.21 0.895-0.345 1.792-1.242 2.003-0.127 0.030-0.255 0.043-0.382 0.043-0.755 0-1.44-0.518-1.622-1.285-0.49-2.085-0.447-4.17 0.020-6.123-3.43-0.502-6.895 0.793-9.155 3.537-2.097 2.548-2.708 5.83-1.958 8.808 0.002 0.020 0.012 0.037 0.013 0.057 0.51 1.977 1.617 3.817 3.308 5.211 0.71 0.587 0.812 1.635 0.228 2.347-0.33 0.4-0.807 0.607-1.288 0.607-0.373 0-0.747-0.123-1.058-0.38-2.028-1.67-3.48-3.851-4.243-6.301-6.738-1.757-13.823 1.078-17.482 7.103-2.195 3.613-2.853 7.866-1.85 11.974 1.003 4.11 3.545 7.581 7.16 9.778 0.787 0.478 1.037 1.502 0.558 2.29-0.313 0.517-0.863 0.8-1.425 0.8-0.222 0-0.442-0.060-0.653-0.152 2.633 1.56 5.665 2.515 8.906 2.655l53.331 0.018c15.623 0 28.332-12.709 28.332-28.332v-16.666l-0.040-1.668z"></path>
<path fill="#bfddef" d="M90 72.561c0-6.443-5.223-11.666-11.666-11.666s-11.666 5.223-11.666 11.666c0 6.443 5.223 11.666 11.666 11.666 1.338 0 2.617-0.237 3.813-0.65 1.122 3.278 4.195 5.65 7.853 5.65 4.601 0 8.333-3.731 8.333-8.333s-3.73-8.333-8.333-8.333z"></path>
<path fill="#abcadd" d="M91.572 71.031c-0.763-6.631-6.405-11.803-13.238-11.803-7.351 0-13.333 5.981-13.333 13.333 0 0.92 0.747 1.667 1.667 1.667s1.667-0.747 1.667-1.667c0-5.515 4.485-10 10-10 5.005 0 9.15 3.698 9.875 8.503-4.661 0.848-8.208 4.928-8.208 9.829 0 0.92 0.747 1.667 1.667 1.667s1.667-0.747 1.667-1.667c0-3.676 2.99-6.666 6.666-6.666s6.666 2.99 6.666 6.666c0 0.92 0.747 1.667 1.667 1.667s1.667-0.747 1.667-1.667c0-4.978-3.66-9.105-8.428-9.863z"></path>
</svg>
<svg id="c03d" width="100" height="100" viewBox="0 0 100 100" x="1044" y="0">
<path fill="#f0c419" d="M10.202 39.562c0-0.917-0.743-1.662-1.662-1.662h-6.878c-0.919 0-1.662 0.745-1.662 1.662s0.743 1.662 1.662 1.662h6.878c0.917 0 1.662-0.745 1.662-1.662z"></path>
<path fill="#f0c419" d="M34.898 4.665c-0.919 0-1.662 0.745-1.662 1.662v6.876c0 0.917 0.743 1.662 1.662 1.662s1.662-0.745 1.662-1.662v-6.876c0-0.917-0.743-1.662-1.662-1.662z"></path>
<path fill="#f0c419" d="M10.86 13.173c-0.65-0.65-1.7-0.65-2.35 0s-0.65 1.7 0 2.35l6.574 6.574c0.324 0.324 0.75 0.487 1.175 0.487s0.851-0.163 1.175-0.487c0.65-0.65 0.65-1.7 0-2.35l-6.574-6.574z"></path>
<path fill="#f0c419" d="M61.287 13.173c-0.65-0.65-1.7-0.65-2.35 0l-6.574 6.574c-0.65 0.65-0.65 1.7 0 2.35 0.324 0.324 0.75 0.487 1.175 0.487s0.851-0.163 1.175-0.487l6.574-6.574c0.65-0.648 0.65-1.7 0-2.35z"></path>
<path fill="#f0c419" d="M24.786 11.483c-0.361-0.846-1.343-1.238-2.18-0.881-0.846 0.359-1.24 1.334-0.881 2.179l1.344 3.166c0.269 0.633 0.884 1.014 1.53 1.014 0.218 0 0.439-0.043 0.65-0.133 0.846-0.359 1.24-1.334 0.881-2.179l-1.344-3.166z"></path>
<path fill="#f0c419" d="M46.685 10.393c-0.853-0.341-1.82 0.068-2.164 0.919l-1.288 3.187c-0.344 0.851 0.067 1.82 0.917 2.164 0.204 0.081 0.415 0.121 0.623 0.121 0.658 0 1.28-0.392 1.541-1.040l1.288-3.187c0.344-0.851-0.068-1.82-0.917-2.164z"></path>
<path fill="#f0c419" d="M9.986 48.332l-3.164 1.344c-0.846 0.359-1.24 1.334-0.881 2.179 0.269 0.633 0.884 1.014 1.53 1.014 0.218 0 0.439-0.043 0.65-0.133l3.164-1.344c0.846-0.359 1.24-1.334 0.881-2.179-0.361-0.846-1.344-1.238-2.18-0.881z"></path>
<path fill="#f0c419" d="M6.647 29.941l3.187 1.288c0.204 0.081 0.415 0.121 0.623 0.121 0.658 0 1.28-0.392 1.541-1.039 0.344-0.851-0.067-1.82-0.917-2.164l-3.187-1.29c-0.851-0.341-1.82 0.068-2.164 0.917-0.344 0.853 0.067 1.821 0.917 2.165z"></path>
<path fill="#ede21b" d="M21.281 57.957c1.195 0.131 2.356 0.371 3.468 0.729-0.741-3.368 0.007-7.031 2.37-9.901 3.111-3.777 8.106-5.090 12.502-3.696l0.020 0.007c1.356-3.415 4.297-6.137 8.146-7.043 1.369-0.322 2.735-0.374 4.056-0.214-0.012-0.258-0.038-0.51-0.038-0.771 0-3.428 1.004-6.617 2.712-9.314-4.015-6.649-11.285-11.112-19.619-11.112-12.66 0-22.921 10.262-22.921 22.921 0 7.551 3.668 14.223 9.304 18.394z"></path>
<path fill="#d0e8f9" d="M99.96 48.805h-0.135c0.058 0.505 0.098 1.015 0.098 1.537 0 0.919-0.743 1.662-1.662 1.662s-1.662-0.743-1.662-1.662c0-5.499-4.472-9.971-9.971-9.971s-9.971 4.472-9.971 9.971c0 0.919-0.743 1.662-1.662 1.662s-1.662-0.743-1.662-1.662c0-6.754 5.067-12.335 11.596-13.173-0.376-8.374-7.285-15.077-15.75-15.077-8.493 0-15.423 6.747-15.755 15.161 1.378 0.326 2.712 0.864 3.952 1.63 3.018 1.87 5.128 4.803 5.943 8.259 0.209 0.894-0.344 1.788-1.236 1.999-0.894 0.201-1.788-0.344-1.999-1.236-1.26-5.354-6.646-8.685-11.988-7.423-5.353 1.26-8.683 6.637-7.423 11.99 0.209 0.892-0.344 1.786-1.238 1.997-0.126 0.030-0.254 0.043-0.381 0.043-0.753 0-1.436-0.517-1.617-1.281-0.489-2.079-0.445-4.158 0.020-6.105-3.42-0.5-6.875 0.791-9.128 3.526-2.091 2.541-2.7 5.813-1.953 8.783 0.002 0.020 0.012 0.037 0.013 0.057 0.508 1.971 1.612 3.805 3.299 5.196 0.708 0.585 0.809 1.63 0.228 2.34-0.329 0.399-0.804 0.605-1.285 0.605-0.372 0-0.745-0.123-1.055-0.379-2.022-1.665-3.47-3.84-4.231-6.283-6.719-1.752-13.783 1.075-17.432 7.083-2.189 3.603-2.845 7.844-1.845 11.94 1 4.098 3.535 7.559 7.139 9.75 0.784 0.477 1.034 1.497 0.557 2.283-0.312 0.515-0.861 0.798-1.421 0.798-0.221 0-0.44-0.060-0.651-0.151 2.626 1.555 5.648 2.508 8.881 2.647l13.642 0.005c8.819-0.141 16.374-5.584 19.594-13.281 3.262 7.799 10.973 13.294 19.942 13.294 15.578 0 28.25-12.673 28.25-28.25v-16.618l-0.040-1.663z"></path>
<path fill="#abcadd" d="M88.254 37.282c-0.384-10.202-8.781-18.389-19.074-18.389-10.207 0-18.546 8.050-19.061 18.13-0.927 0.020-1.86 0.13-2.785 0.347-3.882 0.914-6.955 3.46-8.69 6.734-4.789-0.972-9.718 0.72-12.879 4.557-2.079 2.526-3.122 5.663-3.008 8.906-7.694-1.386-15.521 2.034-19.682 8.881-2.652 4.362-3.445 9.496-2.235 14.454s4.279 9.15 8.641 11.802c0.269 0.165 0.568 0.243 0.862 0.243 0.562 0 1.108-0.284 1.421-0.798 0.477-0.786 0.228-1.806-0.557-2.283-3.604-2.19-6.139-5.652-7.139-9.75-1-4.096-0.344-8.337 1.845-11.94 3.649-6.006 10.714-8.832 17.432-7.083 0.761 2.445 2.21 4.618 4.231 6.283 0.311 0.254 0.683 0.379 1.055 0.379 0.48 0 0.956-0.206 1.285-0.605 0.583-0.71 0.48-1.757-0.228-2.34-1.688-1.389-2.79-3.226-3.299-5.196-0.002-0.020-0.012-0.037-0.013-0.057-0.748-2.97-0.138-6.242 1.953-8.783 2.253-2.735 5.708-4.027 9.128-3.526-0.465 1.949-0.51 4.027-0.020 6.105 0.179 0.766 0.864 1.281 1.617 1.281 0.126 0 0.254-0.015 0.381-0.043 0.894-0.211 1.447-1.105 1.238-1.997-1.26-5.353 2.071-10.73 7.423-11.99 5.343-1.261 10.729 2.069 11.988 7.423 0.211 0.892 1.105 1.437 1.999 1.236 0.892-0.211 1.446-1.105 1.236-1.999-0.814-3.457-2.925-6.39-5.943-8.259-1.24-0.768-2.574-1.304-3.952-1.63 0.332-8.414 7.262-15.161 15.755-15.161 8.465 0 15.377 6.702 15.75 15.077-6.529 0.837-11.596 6.42-11.596 13.173 0 0.919 0.743 1.662 1.662 1.662s1.662-0.743 1.662-1.662c0-5.499 4.472-9.971 9.971-9.971s10.047 4.472 10.047 9.971c0 0.046 0 2.205 0 4.985 0 0.917 0.745 1.662 1.662 1.662s1.662-0.745 1.662-1.662v-4.985c-0.002-6.777-5.181-12.377-11.747-13.183z"></path>
<path fill="#abcadd" d="M71.75 95.335c-8.264 0-15.772-4.334-19.942-11.282-4.169 6.948-11.677 11.282-19.942 11.282-0.917 0-1.662-0.743-1.662-1.662s0.745-1.662 1.662-1.662c8.065 0 15.29-4.818 18.409-12.274l1.532-3.666 1.532 3.666c3.117 7.455 10.345 12.274 18.409 12.274 0.917 0 1.662 0.743 1.662 1.662s-0.743 1.662-1.662 1.662z"></path>
<path fill="#abcadd" d="M91.52 71.862c-0.761-6.612-6.386-11.769-13.2-11.769-7.33 0-13.294 5.964-13.294 13.294 0 0.917 0.745 1.662 1.662 1.662s1.662-0.745 1.662-1.662c0-5.499 4.472-9.971 9.971-9.971 4.99 0 9.123 3.688 9.846 8.478-4.648 0.846-8.184 4.914-8.184 9.801 0 0.917 0.745 1.662 1.662 1.662s1.662-0.745 1.662-1.662c0-3.666 2.981-6.647 6.647-6.647s6.647 2.981 6.647 6.647c0 0.917 0.745 1.662 1.662 1.662s1.662-0.745 1.662-1.662c0-4.964-3.649-9.078-8.404-9.834z"></path>
</svg>
</svg>
